<?xml version="1.0" encoding="UTF-8" standalone="no"?><!DOCTYPE svg PUBLIC "-//W3C//DTD SVG 1.1//EN" "http://www.w3.org/Graphics/SVG/1.1/DTD/svg11.dtd"><svg width="100%" height="100%" viewBox="0 0 996 606" version="1.1" xmlns="http://www.w3.org/2000/svg" xmlns:xlink="http://www.w3.org/1999/xlink" xml:space="preserve" style="fill-rule:evenodd;clip-rule:evenodd;stroke-linejoin:round;stroke-miterlimit:1.41421;"><g><path d="M46.737,78.536l181.767,-38.046l534.738,-16.908l147.954,0c0,0 38.183,12.988 61.292,42.275c23.112,29.283 0,261.042 0,261.042c0,0 17.254,45.008 -34.626,73.175c-31.733,17.225 -157.708,42 -157.708,42c0,0 62.921,28.725 53.892,63.45c-9.025,34.725 -95.134,83.1 -127.467,86.029c-154.771,14.013 -212.434,10.234 -269.892,-2.558c-50.433,-11.225 -77.671,-0.558 -77.671,-0.558c0,0 -10.037,24.837 -48.083,-4.755c-38.046,-29.587 -264.196,-366.487 -264.196,-366.487c0,0 -48.613,-115.409 0,-138.659" style="fill:#fff;fill-rule:nonzero;"/><path d="M556.808,591.328c-128.142,2.263 -233.371,-34.487 -234.625,-82.566c-1.259,-47.334 103.967,-88.871 232.108,-90.888c129.392,-2.008 235.376,35.75 235.376,82.575c0,47.579 -103.717,88.617 -232.859,90.879m412.6,-476.546c0,-53.875 -40.521,-84.088 -95.912,-81.821l-738.617,31.213c-73.255,3.025 -120.076,53.625 -85.084,108.508l220.779,346.4c23.663,37.759 53.621,51.096 90.63,46.071c45.816,22.146 119.075,35.742 200.892,34.234c137.7,-2.521 248.221,-46.075 248.221,-96.925c0,-23.159 -24.171,-44.055 -63.692,-59.913l156.079,-50.6c50.096,-16.363 66.704,-43.55 66.704,-101.45l0,-175.717Zm-159.85,337.08c23.913,14.345 38.017,31.47 38.017,49.6c0,54.625 -118.825,101.45 -266.85,103.966c-65.2,1.259 -125.121,-6.296 -171.946,-20.137l-26.429,8.812c-60.671,20.138 -108.501,8.809 -141.984,-46.329l-229.592,-377.867c-35.246,-58.154 19.888,-123.854 109.005,-128.637l762.029,-41.034c65.705,-3.525 113.792,32.725 113.792,94.909l0,204.412c0,67.217 -19.642,96.921 -80.058,117.063l-105.984,35.242Z" style="fill:#f7931d;fill-rule:nonzero;"/><g><path d="M213.762,327.086c-31.425,2.18 -46.813,-8.129 -47.938,-24.316l-10.933,-157.613c-1.121,-16.187 12.7,-28.521 44.125,-30.7l12.754,-0.887c31.617,-2.192 46.821,8.133 47.942,24.32l4.079,58.792l-33.458,2.321l-3.892,-56.113c-0.492,-7.05 -6.792,-12.2 -19.733,-11.304c-12.942,0.896 -18.659,6.879 -18.171,13.934l10.558,152.246c0.496,7.054 6.979,12.191 19.921,11.295c12.942,-0.9 18.471,-6.87 17.979,-13.92l-4.237,-61.18l33.458,-2.321l4.429,63.859c1.121,16.187 -12.512,28.512 -44.125,30.704l-12.758,0.883Z" style="fill:#603812;fill-rule:nonzero;"/><path d="M220.237,111.195l0.342,0l0.679,0.008l0.333,0.004l0.338,0.008l0.333,0.005l0.333,0.008l0.329,0.012l0.33,0.009l0.329,0.012l0.65,0.025l0.325,0.017l0.962,0.05l0.95,0.062l0.313,0.021l0.312,0.025l0.309,0.025l0.312,0.025l0.308,0.025l0.913,0.088l0.304,0.033l0.3,0.029l0.6,0.067l0.592,0.075l0.291,0.037l0.296,0.038l0.288,0.037l0.291,0.042l0.575,0.083l0.288,0.046l0.283,0.042l0.284,0.046l0.279,0.05l0.283,0.046l0.275,0.05l0.279,0.05l0.55,0.1l0.275,0.054l0.542,0.108l0.267,0.058l0.266,0.055l0.267,0.058l0.267,0.062l0.262,0.059l0.525,0.125l0.517,0.125l0.254,0.066l0.258,0.067l0.254,0.067l0.25,0.066l0.75,0.213l0.246,0.071l0.492,0.15l0.483,0.15l0.242,0.079l0.237,0.075l0.238,0.079l0.237,0.083l0.234,0.08l0.466,0.166l0.23,0.084l0.229,0.087l0.229,0.083l0.45,0.175l0.225,0.092l0.221,0.088l0.441,0.183l0.217,0.096l0.217,0.091l0.433,0.192l0.213,0.096l0.208,0.1l0.212,0.1l0.417,0.2l0.204,0.1l0.613,0.312l0.2,0.109l0.2,0.104l0.587,0.325l0.196,0.112l0.383,0.225l0.375,0.225l0.375,0.234l0.184,0.116l0.183,0.121l0.179,0.117l0.184,0.121l0.175,0.121l0.179,0.12l0.525,0.375l0.341,0.25l0.667,0.517l0.163,0.129l0.162,0.134l0.158,0.133l0.163,0.133l0.158,0.138l0.154,0.133l0.463,0.413l0.3,0.283l0.437,0.425l0.288,0.287l0.142,0.146l0.137,0.146l0.138,0.15l0.137,0.146l0.4,0.45l0.129,0.154l0.134,0.15l0.125,0.154l0.129,0.154l0.125,0.159l0.121,0.154l0.125,0.158l0.12,0.154l0.117,0.159l0.117,0.162l0.116,0.159l0.117,0.162l0.113,0.158l0.112,0.163l0.108,0.162l0.113,0.167l0.104,0.163l0.108,0.166l0.209,0.334l0.1,0.166l0.1,0.171l0.1,0.167l0.287,0.512l0.092,0.175l0.092,0.171l0.091,0.175l0.263,0.525l0.083,0.175l0.083,0.179l0.159,0.359l0.079,0.175l0.075,0.183l0.15,0.358l0.212,0.55l0.134,0.367l0.066,0.187l0.063,0.184l0.125,0.375l0.117,0.375l0.054,0.187l0.054,0.192l0.054,0.187l0.054,0.192l0.1,0.383l0.138,0.575l0.083,0.392l0.042,0.192l0.075,0.391l0.037,0.2l0.067,0.392l0.033,0.2l0.029,0.196l0.059,0.4l0.05,0.4l0.021,0.204l0.025,0.2l0.016,0.2l0.021,0.204l0.033,0.409l0.017,0.2l4.221,60.87l-37.613,2.609l-4.037,-58.184l-0.008,-0.141l-0.013,-0.138l-0.017,-0.137l-0.012,-0.134l-0.021,-0.133l-0.017,-0.133l-0.02,-0.134l-0.025,-0.129l-0.025,-0.133l-0.025,-0.129l-0.03,-0.125l-0.029,-0.129l-0.029,-0.125l-0.033,-0.13l-0.034,-0.125l-0.037,-0.12l-0.038,-0.125l-0.041,-0.121l-0.038,-0.121l-0.046,-0.121l-0.045,-0.121l-0.046,-0.116l-0.046,-0.117l-0.05,-0.117l-0.054,-0.116l-0.05,-0.117l-0.054,-0.113l-0.059,-0.112l-0.058,-0.113l-0.063,-0.112l-0.058,-0.108l-0.067,-0.113l-0.062,-0.108l-0.071,-0.109l-0.067,-0.108l-0.07,-0.104l-0.071,-0.104l-0.075,-0.109l-0.079,-0.1l-0.075,-0.104l-0.084,-0.104l-0.079,-0.1l-0.083,-0.1l-0.088,-0.1l-0.087,-0.1l-0.088,-0.096l-0.091,-0.1l-0.096,-0.096l-0.096,-0.095l-0.096,-0.092l-0.1,-0.096l-0.1,-0.092l-0.104,-0.091l-0.108,-0.092l-0.105,-0.092l-0.112,-0.087l-0.113,-0.092l-0.112,-0.087l-0.117,-0.084l-0.121,-0.087l-0.12,-0.083l-0.121,-0.084l-0.125,-0.083l-0.129,-0.083l-0.13,-0.08l-0.133,-0.079l-0.133,-0.079l-0.138,-0.079l-0.137,-0.075l-0.142,-0.079l-0.142,-0.071l-0.145,-0.075l-0.15,-0.071l-0.15,-0.071l-0.155,-0.071l-0.154,-0.07l-0.158,-0.067l-0.163,-0.067l-0.162,-0.062l-0.167,-0.067l-0.166,-0.062l-0.171,-0.059l-0.171,-0.062l-0.175,-0.059l-0.179,-0.054l-0.179,-0.058l-0.184,-0.054l-0.187,-0.05l-0.188,-0.054l-0.187,-0.05l-0.196,-0.046l-0.196,-0.046l-0.196,-0.046l-0.2,-0.046l-0.204,-0.041l-0.204,-0.042l-0.208,-0.038l-0.213,-0.037l-0.212,-0.038l-0.217,-0.033l-0.217,-0.033l-0.221,-0.029l-0.225,-0.03l-0.225,-0.029l-0.229,-0.025l-0.229,-0.025l-0.233,-0.021l-0.238,-0.02l-0.237,-0.017l-0.242,-0.017l-0.246,-0.016l-0.246,-0.013l-0.25,-0.012l-0.25,-0.009l-0.254,-0.008l-0.258,-0.004l-0.258,-0.004l-0.263,0l-0.267,0l-0.266,0l-0.271,0.004l-0.271,0.008l-0.275,0.008l-0.279,0.013l-0.279,0.012l-0.284,0.013l-0.283,0.017l-0.292,0.02l-0.287,0.021l-0.283,0.021l-0.284,0.025l-0.279,0.025l-0.275,0.029l-0.275,0.029l-0.271,0.034l-0.271,0.029l-0.266,0.037l-0.263,0.034l-0.258,0.037l-0.258,0.042l-0.255,0.042l-0.25,0.041l-0.25,0.042l-0.245,0.046l-0.246,0.05l-0.242,0.046l-0.237,0.05l-0.234,0.054l-0.233,0.05l-0.229,0.054l-0.229,0.058l-0.221,0.054l-0.225,0.059l-0.217,0.062l-0.217,0.059l-0.212,0.062l-0.213,0.067l-0.208,0.062l-0.204,0.067l-0.204,0.071l-0.2,0.066l-0.196,0.071l-0.196,0.071l-0.192,0.071l-0.187,0.075l-0.188,0.075l-0.183,0.075l-0.179,0.079l-0.179,0.079l-0.175,0.079l-0.175,0.08l-0.171,0.079l-0.167,0.083l-0.162,0.083l-0.163,0.084l-0.162,0.087l-0.159,0.088l-0.154,0.087l-0.15,0.088l-0.15,0.087l-0.146,0.092l-0.145,0.087l-0.142,0.092l-0.142,0.096l-0.137,0.092l-0.134,0.095l-0.129,0.092l-0.133,0.096l-0.125,0.096l-0.125,0.1l-0.121,0.096l-0.121,0.1l-0.116,0.1l-0.117,0.1l-0.113,0.1l-0.108,0.1l-0.108,0.1l-0.104,0.104l-0.105,0.104l-0.1,0.104l-0.1,0.104l-0.095,0.104l-0.096,0.105l-0.092,0.108l-0.092,0.104l-0.087,0.108l-0.083,0.109l-0.084,0.108l-0.083,0.108l-0.079,0.109l-0.075,0.108l-0.075,0.113l-0.071,0.108l-0.071,0.112l-0.071,0.113l-0.066,0.112l-0.067,0.113l-0.063,0.117l-0.058,0.112l-0.058,0.117l-0.059,0.112l-0.054,0.117l-0.054,0.117l-0.05,0.116l-0.05,0.117l-0.046,0.121l-0.046,0.116l-0.045,0.121l-0.038,0.117l-0.042,0.121l-0.037,0.121l-0.038,0.12l-0.033,0.125l-0.033,0.121l-0.029,0.125l-0.03,0.125l-0.025,0.125l-0.025,0.125l-0.025,0.125l-0.02,0.125l-0.021,0.129l-0.017,0.13l-0.017,0.125l-0.012,0.129l-0.013,0.133l-0.008,0.129l-0.008,0.129l-0.009,0.134l-0.004,0.133l-0.004,0.133l0,0.267l0.008,0.271l0.009,0.137l0.008,0.142l10.558,152.229l0.009,0.146l0.012,0.134l0.017,0.137l0.012,0.133l0.021,0.134l0.017,0.133l0.021,0.129l0.025,0.134l0.05,0.258l0.029,0.125l0.029,0.129l0.1,0.375l0.038,0.125l0.037,0.121l0.083,0.242l0.046,0.12l0.046,0.117l0.046,0.121l0.15,0.35l0.054,0.112l0.058,0.113l0.059,0.117l0.058,0.108l0.125,0.225l0.2,0.325l0.071,0.108l0.071,0.104l0.075,0.109l0.075,0.104l0.079,0.104l0.079,0.1l0.083,0.104l0.084,0.1l0.083,0.104l0.179,0.196l0.092,0.1l0.092,0.096l0.191,0.192l0.1,0.096l0.104,0.095l0.209,0.184l0.216,0.183l0.113,0.088l0.117,0.091l0.233,0.175l0.121,0.084l0.125,0.087l0.25,0.167l0.129,0.079l0.133,0.083l0.134,0.079l0.137,0.08l0.142,0.079l0.283,0.15l0.146,0.075l0.15,0.075l0.15,0.071l0.308,0.141l0.159,0.071l0.325,0.133l0.162,0.063l0.171,0.067l0.167,0.062l0.175,0.058l0.175,0.063l0.175,0.058l0.183,0.054l0.179,0.059l0.375,0.108l0.188,0.05l0.195,0.05l0.192,0.046l0.2,0.05l0.2,0.046l0.2,0.041l0.204,0.042l0.209,0.042l0.637,0.112l0.217,0.034l0.221,0.033l0.225,0.029l0.22,0.029l0.23,0.029l0.229,0.025l0.233,0.025l0.713,0.063l0.241,0.017l0.246,0.012l0.5,0.025l0.25,0.008l0.258,0.009l0.517,0.008l0.796,0l0.271,-0.004l0.275,-0.008l0.275,-0.009l0.275,-0.012l0.283,-0.013l0.283,-0.012l0.284,-0.017l0.287,-0.021l0.288,-0.021l0.287,-0.02l0.279,-0.025l0.28,-0.025l0.279,-0.03l0.275,-0.029l0.271,-0.033l0.266,-0.033l0.263,-0.034l0.262,-0.037l0.263,-0.038l0.254,-0.037l0.254,-0.042l0.25,-0.042l0.25,-0.045l0.246,-0.042l0.242,-0.05l0.241,-0.046l0.234,-0.05l0.237,-0.054l0.229,-0.05l0.229,-0.054l0.225,-0.059l0.221,-0.054l0.221,-0.058l0.217,-0.063l0.216,-0.058l0.213,-0.062l0.208,-0.067l0.204,-0.063l0.205,-0.066l0.2,-0.067l0.2,-0.071l0.195,-0.071l0.192,-0.07l0.188,-0.071l0.187,-0.075l0.188,-0.075l0.179,-0.075l0.179,-0.075l0.175,-0.079l0.175,-0.08l0.171,-0.079l0.166,-0.079l0.167,-0.083l0.163,-0.084l0.162,-0.083l0.154,-0.087l0.159,-0.084l0.15,-0.087l0.15,-0.088l0.15,-0.087l0.141,-0.092l0.142,-0.092l0.142,-0.087l0.137,-0.096l0.133,-0.092l0.134,-0.091l0.129,-0.096l0.125,-0.096l0.125,-0.096l0.121,-0.096l0.121,-0.095l0.116,-0.1l0.117,-0.096l0.112,-0.1l0.113,-0.1l0.104,-0.1l0.108,-0.104l0.105,-0.1l0.1,-0.105l0.095,-0.1l0.1,-0.104l0.092,-0.104l0.092,-0.108l0.091,-0.104l0.088,-0.105l0.087,-0.108l0.084,-0.108l0.079,-0.104l0.079,-0.109l0.079,-0.112l0.075,-0.109l0.071,-0.108l0.071,-0.112l0.071,-0.109l0.066,-0.112l0.063,-0.113l0.067,-0.112l0.058,-0.117l0.058,-0.112l0.059,-0.113l0.054,-0.117l0.054,-0.116l0.054,-0.117l0.05,-0.117l0.046,-0.116l0.046,-0.117l0.046,-0.121l0.041,-0.116l0.042,-0.121l0.037,-0.121l0.038,-0.121l0.033,-0.121l0.034,-0.125l0.033,-0.121l0.029,-0.125l0.025,-0.125l0.029,-0.125l0.021,-0.125l0.025,-0.125l0.021,-0.129l0.017,-0.125l0.016,-0.129l0.017,-0.129l0.012,-0.129l0.013,-0.129l0.008,-0.134l0.009,-0.133l0.004,-0.129l0.004,-0.134l0.004,-0.133l0,-0.137l0,-0.134l-0.004,-0.137l-0.004,-0.134l-0.009,-0.137l-0.008,-0.146l-4.379,-63.25l37.612,-2.608l4.575,65.937l0.013,0.2l0.012,0.204l0.025,0.613l0.009,0.2l0.008,0.404l0,0.604l-0.004,0.204l-0.004,0.2l-0.004,0.2l-0.009,0.2l-0.008,0.2l-0.008,0.196l-0.013,0.2l-0.012,0.2l-0.017,0.196l-0.017,0.2l-0.016,0.196l-0.017,0.2l-0.021,0.196l-0.025,0.196l-0.021,0.195l-0.025,0.196l-0.029,0.196l-0.029,0.196l-0.029,0.196l-0.029,0.191l-0.034,0.196l-0.033,0.192l-0.038,0.196l-0.037,0.191l-0.038,0.192l-0.041,0.192l-0.042,0.191l-0.042,0.192l-0.045,0.188l-0.046,0.191l-0.05,0.192l-0.05,0.187l-0.05,0.188l-0.054,0.192l-0.055,0.187l-0.054,0.188l-0.058,0.183l-0.058,0.187l-0.063,0.188l-0.062,0.183l-0.063,0.188l-0.062,0.183l-0.067,0.183l-0.071,0.184l-0.071,0.183l-0.071,0.183l-0.07,0.18l-0.075,0.183l-0.075,0.179l-0.08,0.183l-0.079,0.18l-0.079,0.179l-0.083,0.179l-0.084,0.175l-0.087,0.179l-0.088,0.175l-0.087,0.179l-0.088,0.175l-0.091,0.175l-0.096,0.175l-0.096,0.171l-0.096,0.175l-0.096,0.171l-0.1,0.175l-0.1,0.171l-0.104,0.171l-0.104,0.17l-0.104,0.167l-0.108,0.171l-0.109,0.167l-0.108,0.17l-0.113,0.167l-0.112,0.167l-0.117,0.162l-0.116,0.167l-0.117,0.167l-0.121,0.162l-0.121,0.163l-0.121,0.162l-0.125,0.163l-0.125,0.158l-0.125,0.162l-0.129,0.159l-0.129,0.158l-0.133,0.158l-0.134,0.159l-0.133,0.158l-0.137,0.154l-0.138,0.159l-0.137,0.154l-0.142,0.154l-0.142,0.154l-0.146,0.15l-0.141,0.154l-0.15,0.15l-0.146,0.15l-0.15,0.15l-0.15,0.15l-0.154,0.146l-0.154,0.15l-0.159,0.146l-0.154,0.146l-0.158,0.146l-0.163,0.141l-0.162,0.146l-0.163,0.142l-0.162,0.141l-0.167,0.142l-0.171,0.142l-0.166,0.141l-0.171,0.138l-0.171,0.142l-0.175,0.137l-0.175,0.138l-0.179,0.133l-0.175,0.137l-0.179,0.134l-0.184,0.133l-0.183,0.133l-0.183,0.134l-0.184,0.133l-0.187,0.129l-0.192,0.129l-0.187,0.13l-0.192,0.129l-0.192,0.129l-0.196,0.125l-0.195,0.129l-0.2,0.125l-0.196,0.125l-0.2,0.121l-0.204,0.125l-0.205,0.121l-0.204,0.125l-0.204,0.121l-0.208,0.116l-0.209,0.121l-0.212,0.117l-0.213,0.121l-0.212,0.116l-0.217,0.117l-0.216,0.112l-0.217,0.117l-0.221,0.113l-0.221,0.112l-0.225,0.113l-0.221,0.112l-0.229,0.108l-0.225,0.109l-0.229,0.112l-0.229,0.109l-0.233,0.104l-0.234,0.108l-0.233,0.104l-0.238,0.104l-0.237,0.105l-0.238,0.104l-0.241,0.104l-0.242,0.1l-0.242,0.1l-0.245,0.1l-0.25,0.1l-0.246,0.1l-0.25,0.096l-0.25,0.096l-0.254,0.095l-0.255,0.096l-0.254,0.096l-0.258,0.092l-0.258,0.091l-0.259,0.092l-0.262,0.092l-0.263,0.091l-0.266,0.088l-0.267,0.092l-0.267,0.087l-0.271,0.083l-0.27,0.088l-0.271,0.087l-0.275,0.084l-0.275,0.083l-0.275,0.083l-0.279,0.08l-0.28,0.083l-0.283,0.079l-0.283,0.079l-0.284,0.079l-0.287,0.075l-0.288,0.08l-0.287,0.075l-0.292,0.075l-0.291,0.075l-0.292,0.07l-0.296,0.075l-0.296,0.071l-0.3,0.071l-0.3,0.071l-0.3,0.067l-0.304,0.07l-0.304,0.067l-0.304,0.067l-0.309,0.062l-0.308,0.067l-0.312,0.062l-0.313,0.063l-0.312,0.062l-0.317,0.063l-0.317,0.058l-0.316,0.063l-0.321,0.058l-0.321,0.058l-0.325,0.055l-0.325,0.058l-0.325,0.054l-0.329,0.054l-0.329,0.054l-0.33,0.05l-0.333,0.05l-0.333,0.055l-0.338,0.045l-0.337,0.05l-0.338,0.05l-0.341,0.046l-0.342,0.046l-0.342,0.046l-0.346,0.042l-0.345,0.045l-0.35,0.042l-0.35,0.042l-0.35,0.041l-0.355,0.038l-0.354,0.037l-0.358,0.038l-0.354,0.037l-0.363,0.038l-0.358,0.033l-0.363,0.034l-0.366,0.033l-0.367,0.033l-0.367,0.034l-0.366,0.029l-0.371,0.029l-0.375,0.029l-0.371,0.025l-0.375,0.029l-12.762,0.884l-0.371,0.025l-0.371,0.025l-0.371,0.02l-0.371,0.021l-0.366,0.021l-0.367,0.021l-0.367,0.021l-0.362,0.016l-0.363,0.017l-0.358,0.013l-0.358,0.016l-0.359,0.013l-0.358,0.008l-0.354,0.013l-0.354,0.008l-0.35,0.008l-0.35,0.009l-0.35,0.004l-0.35,0.008l-0.346,0l-0.346,0.004l-0.342,0l-0.341,0.004l-0.342,-0.004l-0.338,0l-0.341,-0.004l-0.334,-0.004l-0.337,-0.004l-0.333,-0.004l-0.334,-0.009l-0.329,-0.008l-0.329,-0.008l-0.329,-0.013l-0.325,-0.012l-0.325,-0.013l-0.325,-0.012l-0.321,-0.017l-0.321,-0.017l-0.321,-0.016l-0.321,-0.017l-0.316,-0.021l-0.313,-0.021l-0.316,-0.021l-0.313,-0.02l-0.312,-0.025l-0.309,-0.025l-0.308,-0.025l-0.308,-0.025l-0.305,-0.03l-0.304,-0.029l-0.304,-0.029l-0.3,-0.033l-0.3,-0.029l-0.3,-0.034l-0.3,-0.037l-0.296,-0.034l-0.291,-0.037l-0.296,-0.038l-0.292,-0.037l-0.292,-0.038l-0.287,-0.041l-0.288,-0.042l-0.287,-0.042l-0.283,-0.045l-0.284,-0.046l-0.283,-0.046l-0.283,-0.046l-0.28,-0.046l-0.279,-0.05l-0.275,-0.05l-0.275,-0.05l-0.275,-0.054l-0.271,-0.05l-0.275,-0.054l-0.266,-0.054l-0.271,-0.059l-0.267,-0.058l-0.266,-0.058l-0.263,-0.059l-0.267,-0.058l-0.258,-0.062l-0.262,-0.063l-0.259,-0.062l-0.258,-0.063l-0.258,-0.067l-0.255,-0.066l-0.254,-0.067l-0.25,-0.067l-0.254,-0.07l-0.246,-0.071l-0.25,-0.071l-0.246,-0.071l-0.245,-0.075l-0.246,-0.075l-0.242,-0.075l-0.242,-0.075l-0.241,-0.075l-0.238,-0.079l-0.237,-0.079l-0.238,-0.079l-0.233,-0.084l-0.233,-0.083l-0.234,-0.083l-0.229,-0.084l-0.229,-0.083l-0.229,-0.088l-0.229,-0.087l-0.225,-0.088l-0.225,-0.087l-0.221,-0.092l-0.221,-0.091l-0.221,-0.092l-0.217,-0.092l-0.22,-0.096l-0.213,-0.095l-0.217,-0.096l-0.212,-0.096l-0.213,-0.1l-0.208,-0.096l-0.212,-0.1l-0.205,-0.1l-0.208,-0.104l-0.204,-0.104l-0.204,-0.1l-0.204,-0.109l-0.2,-0.104l-0.2,-0.104l-0.196,-0.108l-0.2,-0.109l-0.196,-0.112l-0.192,-0.108l-0.196,-0.113l-0.191,-0.112l-0.188,-0.113l-0.191,-0.112l-0.188,-0.117l-0.183,-0.117l-0.188,-0.116l-0.179,-0.117l-0.183,-0.121l-0.184,-0.121l-0.179,-0.121l-0.175,-0.12l-0.179,-0.125l-0.175,-0.121l-0.171,-0.125l-0.175,-0.125l-0.171,-0.129l-0.166,-0.125l-0.171,-0.13l-0.167,-0.129l-0.162,-0.129l-0.167,-0.133l-0.162,-0.134l-0.163,-0.133l-0.158,-0.133l-0.159,-0.134l-0.158,-0.137l-0.154,-0.133l-0.154,-0.138l-0.154,-0.142l-0.15,-0.137l-0.15,-0.142l-0.15,-0.141l-0.146,-0.142l-0.146,-0.142l-0.146,-0.141l-0.142,-0.146l-0.141,-0.146l-0.142,-0.146l-0.137,-0.15l-0.138,-0.146l-0.133,-0.15l-0.138,-0.15l-0.133,-0.15l-0.129,-0.15l-0.129,-0.154l-0.13,-0.154l-0.129,-0.154l-0.125,-0.154l-0.125,-0.155l-0.121,-0.158l-0.12,-0.158l-0.121,-0.159l-0.121,-0.158l-0.117,-0.158l-0.116,-0.163l-0.113,-0.162l-0.112,-0.163l-0.113,-0.162l-0.108,-0.163l-0.109,-0.166l-0.108,-0.163l-0.104,-0.167l-0.104,-0.166l-0.1,-0.167l-0.104,-0.171l-0.1,-0.171l-0.096,-0.166l-0.096,-0.171l-0.096,-0.171l-0.096,-0.175l-0.091,-0.171l-0.088,-0.175l-0.092,-0.175l-0.087,-0.175l-0.088,-0.175l-0.083,-0.175l-0.083,-0.179l-0.084,-0.179l-0.079,-0.175l-0.079,-0.179l-0.075,-0.184l-0.079,-0.179l-0.071,-0.179l-0.075,-0.183l-0.071,-0.184l-0.071,-0.183l-0.066,-0.183l-0.071,-0.184l-0.063,-0.187l-0.066,-0.183l-0.063,-0.188l-0.058,-0.187l-0.063,-0.188l-0.058,-0.187l-0.054,-0.188l-0.058,-0.192l-0.055,-0.187l-0.05,-0.192l-0.05,-0.191l-0.05,-0.192l-0.05,-0.192l-0.045,-0.191l-0.046,-0.196l-0.042,-0.192l-0.042,-0.196l-0.041,-0.196l-0.038,-0.195l-0.041,-0.196l-0.034,-0.196l-0.037,-0.196l-0.034,-0.2l-0.029,-0.196l-0.033,-0.2l-0.029,-0.2l-0.025,-0.2l-0.029,-0.2l-0.025,-0.2l-0.021,-0.2l-0.025,-0.204l-0.021,-0.2l-0.017,-0.204l-0.016,-0.2l-0.017,-0.204l-0.017,-0.2l-10.933,-157.621l-0.013,-0.2l-0.012,-0.204l-0.013,-0.205l-0.008,-0.204l-0.004,-0.204l-0.008,-0.204l-0.005,-0.2l-0.004,-0.204l0,-0.2l0,-0.204l0,-0.2l0.004,-0.2l0.005,-0.2l0.004,-0.2l0.008,-0.2l0.008,-0.2l0.013,-0.2l0.012,-0.2l0.013,-0.2l0.012,-0.196l0.017,-0.2l0.021,-0.196l0.017,-0.2l0.02,-0.196l0.025,-0.196l0.025,-0.196l0.025,-0.195l0.025,-0.196l0.03,-0.196l0.029,-0.196l0.033,-0.192l0.033,-0.195l0.034,-0.196l0.037,-0.192l0.038,-0.192l0.041,-0.191l0.038,-0.192l0.046,-0.192l0.041,-0.191l0.046,-0.192l0.046,-0.192l0.05,-0.187l0.05,-0.192l0.054,-0.187l0.05,-0.188l0.059,-0.187l0.054,-0.188l0.058,-0.187l0.058,-0.188l0.063,-0.183l0.062,-0.188l0.067,-0.183l0.063,-0.187l0.07,-0.184l0.067,-0.183l0.071,-0.183l0.071,-0.184l0.075,-0.179l0.075,-0.183l0.079,-0.179l0.075,-0.18l0.083,-0.179l0.079,-0.179l0.084,-0.179l0.083,-0.179l0.088,-0.179l0.087,-0.175l0.088,-0.175l0.091,-0.18l0.092,-0.175l0.096,-0.17l0.096,-0.175l0.095,-0.175l0.1,-0.171l0.1,-0.175l0.1,-0.171l0.105,-0.171l0.104,-0.171l0.108,-0.166l0.104,-0.171l0.113,-0.167l0.108,-0.167l0.113,-0.166l0.116,-0.167l0.113,-0.167l0.116,-0.166l0.121,-0.163l0.121,-0.162l0.121,-0.167l0.121,-0.162l0.125,-0.159l0.129,-0.162l0.125,-0.159l0.129,-0.162l0.133,-0.158l0.13,-0.159l0.137,-0.158l0.133,-0.154l0.138,-0.159l0.137,-0.154l0.142,-0.154l0.142,-0.154l0.141,-0.154l0.146,-0.154l0.146,-0.15l0.146,-0.15l0.15,-0.15l0.15,-0.15l0.15,-0.15l0.154,-0.15l0.154,-0.146l0.159,-0.146l0.158,-0.146l0.158,-0.146l0.159,-0.146l0.162,-0.141l0.167,-0.146l0.162,-0.142l0.167,-0.141l0.171,-0.138l0.171,-0.142l0.17,-0.137l0.171,-0.142l0.175,-0.137l0.175,-0.138l0.179,-0.133l0.175,-0.138l0.184,-0.133l0.179,-0.133l0.183,-0.134l0.184,-0.133l0.187,-0.133l0.188,-0.129l0.187,-0.13l0.192,-0.129l0.191,-0.129l0.196,-0.129l0.192,-0.125l0.2,-0.129l0.196,-0.125l0.2,-0.125l0.2,-0.121l0.204,-0.125l0.2,-0.121l0.208,-0.121l0.204,-0.121l0.209,-0.12l0.212,-0.121l0.209,-0.117l0.212,-0.117l0.217,-0.116l0.212,-0.117l0.217,-0.117l0.221,-0.112l0.221,-0.117l0.22,-0.112l0.221,-0.113l0.225,-0.108l0.225,-0.113l0.229,-0.108l0.23,-0.108l0.229,-0.109l0.233,-0.108l0.233,-0.108l0.234,-0.104l0.237,-0.105l0.238,-0.104l0.237,-0.104l0.242,-0.1l0.242,-0.104l0.241,-0.1l0.246,-0.1l0.246,-0.1l0.25,-0.096l0.25,-0.1l0.25,-0.096l0.254,-0.096l0.25,-0.095l0.258,-0.092l0.255,-0.096l0.258,-0.092l0.262,-0.091l0.263,-0.092l0.262,-0.087l0.263,-0.092l0.267,-0.088l0.266,-0.087l0.271,-0.088l0.271,-0.087l0.271,-0.083l0.271,-0.084l0.275,-0.083l0.279,-0.083l0.275,-0.084l0.283,-0.079l0.279,-0.079l0.284,-0.079l0.283,-0.079l0.283,-0.08l0.288,-0.075l0.287,-0.075l0.292,-0.075l0.292,-0.075l0.291,-0.075l0.296,-0.07l0.296,-0.071l0.296,-0.071l0.3,-0.071l0.3,-0.067l0.304,-0.07l0.304,-0.067l0.304,-0.067l0.309,-0.066l0.304,-0.063l0.312,-0.062l0.313,-0.063l0.312,-0.062l0.313,-0.063l0.316,-0.058l0.317,-0.063l0.321,-0.058l0.317,-0.054l0.325,-0.059l0.32,-0.054l0.325,-0.058l0.33,-0.054l0.325,-0.05l0.333,-0.054l0.329,-0.05l0.333,-0.05l0.334,-0.05l0.337,-0.05l0.338,-0.046l0.337,-0.05l0.342,-0.046l0.342,-0.042l0.341,-0.046l0.346,-0.041l0.346,-0.042l0.35,-0.042l0.35,-0.041l0.35,-0.042l0.354,-0.037l0.354,-0.038l0.354,-0.037l0.359,-0.034l0.362,-0.037l0.359,-0.034l0.362,-0.033l0.363,-0.029l0.366,-0.033l0.367,-0.03l0.371,-0.029l0.366,-0.029l0.375,-0.025l0.371,-0.029l12.759,-0.888l0.37,-0.025l0.375,-0.025l0.375,-0.02l0.371,-0.025l0.371,-0.021l0.367,-0.017l0.366,-0.021l0.367,-0.016l0.363,-0.017l0.362,-0.017l0.363,-0.012l0.358,-0.013l0.358,-0.012l0.354,-0.009l0.359,-0.012l0.354,-0.008l0.35,-0.005l0.35,-0.008l0.35,-0.004l0.35,-0.004l0.346,-0.004l1.029,0Zm-0.671,4.166l-0.333,0l-0.334,0.004l-0.333,0.005l-0.337,0.004l-0.338,0.004l-0.337,0.008l-0.342,0.009l-0.342,0.008l-0.346,0.012l-0.345,0.009l-0.346,0.012l-0.35,0.017l-0.35,0.012l-0.35,0.017l-0.354,0.017l-0.355,0.016l-0.358,0.021l-0.354,0.021l-0.363,0.021l-0.358,0.021l-0.362,0.025l-0.367,0.025l-12.75,0.887l-0.363,0.025l-0.362,0.025l-0.358,0.029l-0.355,0.03l-0.354,0.029l-0.354,0.029l-0.354,0.029l-0.35,0.033l-0.346,0.034l-0.35,0.033l-0.342,0.033l-0.345,0.038l-0.342,0.033l-0.342,0.038l-0.337,0.041l-0.338,0.038l-0.333,0.037l-0.333,0.042l-0.334,0.042l-0.329,0.041l-0.329,0.046l-0.329,0.042l-0.325,0.046l-0.325,0.046l-0.321,0.045l-0.321,0.05l-0.317,0.046l-0.32,0.05l-0.313,0.05l-0.317,0.05l-0.312,0.054l-0.308,0.05l-0.313,0.055l-0.304,0.054l-0.308,0.054l-0.305,0.058l-0.304,0.054l-0.3,0.059l-0.3,0.058l-0.296,0.058l-0.295,0.063l-0.296,0.058l-0.296,0.063l-0.288,0.062l-0.291,0.063l-0.288,0.062l-0.287,0.067l-0.284,0.062l-0.283,0.067l-0.283,0.067l-0.279,0.071l-0.28,0.066l-0.279,0.071l-0.275,0.067l-0.271,0.071l-0.275,0.075l-0.27,0.07l-0.267,0.071l-0.267,0.075l-0.266,0.075l-0.263,0.075l-0.262,0.075l-0.263,0.079l-0.258,0.075l-0.259,0.08l-0.258,0.079l-0.254,0.079l-0.25,0.079l-0.254,0.083l-0.25,0.084l-0.246,0.079l-0.246,0.083l-0.246,0.084l-0.241,0.087l-0.242,0.083l-0.242,0.088l-0.237,0.087l-0.238,0.088l-0.237,0.087l-0.234,0.088l-0.233,0.092l-0.229,0.087l-0.229,0.092l-0.225,0.091l-0.229,0.092l-0.225,0.092l-0.221,0.096l-0.221,0.091l-0.221,0.096l-0.217,0.096l-0.216,0.096l-0.217,0.096l-0.212,0.1l-0.213,0.095l-0.208,0.1l-0.209,0.1l-0.208,0.1l-0.204,0.1l-0.204,0.1l-0.204,0.1l-0.2,0.105l-0.2,0.104l-0.196,0.104l-0.196,0.104l-0.196,0.104l-0.192,0.104l-0.191,0.105l-0.192,0.108l-0.187,0.108l-0.188,0.109l-0.183,0.108l-0.184,0.108l-0.183,0.109l-0.179,0.108l-0.179,0.112l-0.179,0.109l-0.175,0.112l-0.175,0.113l-0.175,0.112l-0.171,0.113l-0.171,0.116l-0.167,0.113l-0.166,0.117l-0.167,0.116l-0.163,0.113l-0.162,0.116l-0.163,0.117l-0.158,0.121l-0.158,0.117l-0.159,0.116l-0.154,0.121l-0.154,0.121l-0.15,0.121l-0.15,0.121l-0.15,0.12l-0.146,0.121l-0.146,0.121l-0.145,0.125l-0.142,0.121l-0.142,0.125l-0.141,0.125l-0.138,0.121l-0.137,0.125l-0.138,0.129l-0.133,0.125l-0.134,0.125l-0.129,0.129l-0.129,0.125l-0.129,0.129l-0.129,0.129l-0.125,0.13l-0.125,0.129l-0.121,0.129l-0.121,0.129l-0.121,0.129l-0.121,0.134l-0.116,0.129l-0.113,0.133l-0.116,0.133l-0.113,0.134l-0.112,0.133l-0.109,0.133l-0.108,0.134l-0.108,0.133l-0.105,0.138l-0.104,0.133l-0.104,0.137l-0.1,0.134l-0.1,0.137l-0.1,0.138l-0.1,0.137l-0.096,0.138l-0.091,0.137l-0.096,0.142l-0.092,0.137l-0.092,0.142l-0.087,0.138l-0.088,0.141l-0.087,0.142l-0.088,0.142l-0.083,0.141l-0.083,0.142l-0.079,0.142l-0.084,0.145l-0.075,0.142l-0.079,0.146l-0.075,0.142l-0.075,0.145l-0.075,0.146l-0.071,0.146l-0.071,0.146l-0.07,0.146l-0.067,0.146l-0.067,0.15l-0.066,0.145l-0.067,0.15l-0.063,0.146l-0.062,0.15l-0.058,0.15l-0.059,0.15l-0.058,0.15l-0.058,0.15l-0.055,0.15l-0.054,0.154l-0.054,0.15l-0.05,0.155l-0.05,0.154l-0.05,0.154l-0.05,0.15l-0.046,0.154l-0.046,0.158l-0.041,0.155l-0.042,0.154l-0.042,0.158l-0.041,0.154l-0.038,0.159l-0.037,0.158l-0.038,0.154l-0.037,0.158l-0.034,0.163l-0.029,0.158l-0.033,0.159l-0.029,0.158l-0.029,0.162l-0.03,0.163l-0.025,0.158l-0.025,0.163l-0.025,0.162l-0.02,0.163l-0.021,0.162l-0.021,0.167l-0.021,0.162l-0.017,0.163l-0.016,0.167l-0.013,0.166l-0.016,0.167l-0.013,0.162l-0.008,0.171l-0.013,0.167l-0.008,0.167l-0.008,0.166l-0.005,0.171l-0.004,0.167l-0.004,0.171l-0.004,0.17l0,0.513l0.008,0.342l0.004,0.175l0.009,0.17l0.004,0.175l0.008,0.175l0.013,0.171l0.012,0.179l10.934,157.605l0.012,0.179l0.013,0.175l0.016,0.175l0.017,0.171l0.017,0.175l0.016,0.171l0.042,0.341l0.025,0.167l0.021,0.171l0.025,0.171l0.025,0.166l0.116,0.667l0.034,0.162l0.033,0.167l0.067,0.325l0.112,0.488l0.042,0.158l0.042,0.162l0.041,0.159l0.046,0.158l0.042,0.158l0.046,0.159l0.05,0.154l0.045,0.158l0.1,0.309l0.163,0.462l0.054,0.15l0.058,0.154l0.055,0.15l0.062,0.15l0.058,0.15l0.188,0.45l0.267,0.584l0.141,0.291l0.071,0.142l0.075,0.146l0.225,0.425l0.158,0.283l0.084,0.138l0.079,0.141l0.167,0.275l0.175,0.275l0.087,0.134l0.088,0.137l0.183,0.267l0.092,0.137l0.095,0.129l0.192,0.267l0.096,0.129l0.1,0.134l0.2,0.258l0.208,0.258l0.104,0.125l0.109,0.129l0.216,0.25l0.113,0.125l0.108,0.125l0.117,0.125l0.112,0.125l0.117,0.121l0.117,0.125l0.116,0.121l0.242,0.242l0.246,0.237l0.125,0.117l0.125,0.121l0.129,0.116l0.125,0.117l0.133,0.117l0.13,0.112l0.133,0.117l0.133,0.112l0.138,0.113l0.133,0.117l0.142,0.108l0.137,0.112l0.142,0.113l0.142,0.108l0.141,0.113l0.292,0.216l0.15,0.109l0.146,0.104l0.154,0.108l0.15,0.104l0.462,0.313l0.159,0.104l0.158,0.1l0.158,0.104l0.325,0.2l0.167,0.1l0.163,0.096l0.17,0.1l0.167,0.096l0.513,0.287l0.175,0.096l0.175,0.092l0.179,0.096l0.175,0.091l0.183,0.092l0.179,0.092l0.184,0.087l0.183,0.092l0.187,0.087l0.184,0.088l0.191,0.087l0.188,0.088l0.192,0.083l0.191,0.088l0.392,0.166l0.196,0.08l0.2,0.083l0.2,0.079l0.2,0.083l0.408,0.159l0.204,0.075l0.209,0.079l0.416,0.15l0.425,0.15l0.867,0.283l0.221,0.071l0.221,0.067l0.225,0.071l0.45,0.133l0.229,0.062l0.229,0.067l0.229,0.063l0.7,0.187l0.713,0.175l0.241,0.058l0.242,0.055l0.246,0.058l0.491,0.108l0.25,0.054l0.246,0.05l0.254,0.05l0.25,0.05l0.255,0.05l0.258,0.05l0.254,0.046l0.263,0.046l0.258,0.046l0.525,0.092l0.262,0.041l0.534,0.084l0.271,0.037l0.27,0.042l0.271,0.037l0.55,0.075l0.275,0.034l0.838,0.1l0.283,0.029l0.283,0.033l0.284,0.029l0.287,0.029l0.292,0.025l0.287,0.03l0.292,0.025l0.292,0.02l0.296,0.025l0.295,0.021l0.296,0.025l0.3,0.021l0.3,0.017l0.3,0.021l0.609,0.033l0.308,0.012l0.308,0.017l0.617,0.025l0.312,0.013l0.317,0.008l0.313,0.008l0.316,0.009l0.321,0.008l0.638,0.008l0.65,0.009l0.325,0l0.325,0.004l0.329,-0.004l0.329,0l0.333,-0.005l0.334,0l0.333,-0.008l0.337,-0.004l0.338,-0.008l0.337,-0.005l0.342,-0.012l0.342,-0.008l0.346,-0.013l0.341,-0.012l0.35,-0.013l0.346,-0.012l0.35,-0.017l0.35,-0.017l0.354,-0.016l0.354,-0.021l0.355,-0.021l0.358,-0.021l0.358,-0.021l0.363,-0.025l0.362,-0.025l12.754,-0.883l0.367,-0.025l0.363,-0.025l0.358,-0.029l0.358,-0.029l0.359,-0.03l0.354,-0.029l0.354,-0.033l0.354,-0.029l0.35,-0.034l0.346,-0.033l0.35,-0.037l0.342,-0.034l0.345,-0.037l0.342,-0.038l0.342,-0.037l0.337,-0.038l0.338,-0.041l0.333,-0.042l0.333,-0.042l0.334,-0.041l0.329,-0.042l0.329,-0.046l0.329,-0.046l0.325,-0.046l0.325,-0.045l0.321,-0.046l0.321,-0.05l0.317,-0.05l0.316,-0.05l0.317,-0.05l0.312,-0.054l0.313,-0.05l0.312,-0.055l0.309,-0.054l0.308,-0.054l0.304,-0.058l0.304,-0.054l0.3,-0.059l0.305,-0.058l0.295,-0.058l0.3,-0.063l0.296,-0.058l0.292,-0.063l0.292,-0.062l0.291,-0.063l0.288,-0.062l0.287,-0.067l0.288,-0.067l0.283,-0.066l0.283,-0.067l0.28,-0.067l0.279,-0.066l0.279,-0.071l0.275,-0.071l0.275,-0.071l0.275,-0.071l0.271,-0.07l0.266,-0.075l0.271,-0.075l0.263,-0.071l0.266,-0.079l0.263,-0.075l0.262,-0.075l0.259,-0.08l0.258,-0.079l0.258,-0.079l0.255,-0.079l0.254,-0.079l0.25,-0.079l0.25,-0.084l0.25,-0.083l0.246,-0.083l0.245,-0.084l0.242,-0.083l0.242,-0.088l0.241,-0.083l0.238,-0.087l0.237,-0.088l0.234,-0.087l0.237,-0.092l0.229,-0.088l0.234,-0.091l0.229,-0.092l0.225,-0.092l0.225,-0.091l0.225,-0.092l0.225,-0.092l0.221,-0.095l0.216,-0.096l0.221,-0.096l0.217,-0.096l0.212,-0.096l0.213,-0.096l0.212,-0.1l0.213,-0.095l0.204,-0.1l0.208,-0.1l0.205,-0.1l0.204,-0.105l0.204,-0.1l0.2,-0.104l0.2,-0.1l0.196,-0.104l0.196,-0.104l0.195,-0.104l0.192,-0.104l0.192,-0.109l0.187,-0.104l0.188,-0.108l0.187,-0.109l0.184,-0.108l0.183,-0.108l0.183,-0.109l0.179,-0.112l0.18,-0.108l0.179,-0.113l0.175,-0.112l0.175,-0.113l0.171,-0.112l0.17,-0.113l0.171,-0.112l0.167,-0.117l0.167,-0.113l0.166,-0.116l0.163,-0.117l0.162,-0.117l0.159,-0.116l0.158,-0.117l0.158,-0.117l0.154,-0.12l0.155,-0.117l0.154,-0.121l0.15,-0.121l0.15,-0.121l0.15,-0.12l0.146,-0.121l0.145,-0.121l0.146,-0.125l0.142,-0.121l0.142,-0.125l0.137,-0.121l0.138,-0.125l0.137,-0.125l0.133,-0.125l0.134,-0.129l0.133,-0.125l0.129,-0.125l0.129,-0.129l0.13,-0.129l0.125,-0.125l0.125,-0.129l0.125,-0.13l0.12,-0.129l0.121,-0.133l0.121,-0.129l0.117,-0.129l0.116,-0.134l0.113,-0.129l0.117,-0.133l0.112,-0.134l0.108,-0.133l0.109,-0.133l0.108,-0.134l0.108,-0.133l0.105,-0.137l0.104,-0.134l0.104,-0.137l0.1,-0.134l0.1,-0.137l0.096,-0.138l0.096,-0.137l0.095,-0.138l0.096,-0.137l0.092,-0.142l0.092,-0.137l0.091,-0.142l0.088,-0.137l0.087,-0.142l0.088,-0.142l0.083,-0.141l0.083,-0.142l0.084,-0.142l0.079,-0.141l0.079,-0.142l0.079,-0.146l0.075,-0.142l0.079,-0.145l0.071,-0.146l0.075,-0.146l0.071,-0.146l0.071,-0.146l0.067,-0.146l0.07,-0.145l0.067,-0.146l0.063,-0.15l0.062,-0.146l0.063,-0.15l0.062,-0.15l0.063,-0.15l0.058,-0.15l0.054,-0.15l0.058,-0.15l0.055,-0.15l0.054,-0.154l0.05,-0.15l0.054,-0.154l0.05,-0.15l0.046,-0.155l0.05,-0.154l0.046,-0.154l0.041,-0.154l0.046,-0.158l0.042,-0.155l0.041,-0.154l0.038,-0.158l0.042,-0.158l0.033,-0.155l0.037,-0.158l0.034,-0.158l0.033,-0.159l0.033,-0.162l0.034,-0.158l0.029,-0.159l0.029,-0.162l0.025,-0.159l0.025,-0.162l0.025,-0.163l0.025,-0.162l0.021,-0.163l0.021,-0.162l0.021,-0.167l0.016,-0.162l0.021,-0.167l0.013,-0.162l0.016,-0.167l0.013,-0.167l0.012,-0.166l0.013,-0.167l0.008,-0.167l0.008,-0.166l0.009,-0.171l0.004,-0.167l0.008,-0.171l0,-0.166l0.004,-0.171l0,-0.171l0,-0.171l0,-0.171l-0.004,-0.175l-0.004,-0.171l-0.004,-0.175l-0.008,-0.17l-0.009,-0.175l-0.008,-0.175l-0.008,-0.171l-0.013,-0.179l-4.283,-61.78l-29.304,2.034l4.095,59.108l0.013,0.183l0.008,0.196l0.009,0.192l0.004,0.192l0,0.383l-0.004,0.187l-0.005,0.192l-0.008,0.192l-0.012,0.191l-0.017,0.188l-0.017,0.192l-0.016,0.187l-0.021,0.188l-0.025,0.191l-0.029,0.188l-0.03,0.187l-0.033,0.184l-0.037,0.187l-0.038,0.188l-0.042,0.183l-0.045,0.183l-0.046,0.188l-0.05,0.179l-0.05,0.183l-0.059,0.184l-0.054,0.179l-0.062,0.183l-0.063,0.179l-0.066,0.179l-0.071,0.175l-0.071,0.18l-0.075,0.175l-0.079,0.175l-0.079,0.175l-0.084,0.17l-0.087,0.171l-0.088,0.171l-0.091,0.171l-0.092,0.167l-0.1,0.17l-0.1,0.167l-0.1,0.163l-0.108,0.166l-0.109,0.163l-0.108,0.158l-0.113,0.163l-0.116,0.158l-0.121,0.158l-0.121,0.154l-0.125,0.155l-0.125,0.154l-0.129,0.154l-0.133,0.15l-0.134,0.15l-0.137,0.146l-0.142,0.146l-0.142,0.145l-0.145,0.142l-0.15,0.142l-0.15,0.141l-0.15,0.138l-0.159,0.137l-0.158,0.138l-0.158,0.133l-0.163,0.134l-0.167,0.129l-0.166,0.129l-0.171,0.129l-0.175,0.125l-0.175,0.125l-0.179,0.121l-0.179,0.121l-0.184,0.121l-0.187,0.116l-0.188,0.117l-0.187,0.117l-0.196,0.112l-0.196,0.113l-0.196,0.108l-0.2,0.108l-0.204,0.104l-0.204,0.105l-0.208,0.104l-0.209,0.1l-0.212,0.1l-0.213,0.1l-0.221,0.096l-0.216,0.091l-0.221,0.092l-0.225,0.092l-0.229,0.091l-0.229,0.088l-0.23,0.083l-0.233,0.083l-0.237,0.084l-0.242,0.079l-0.238,0.079l-0.245,0.079l-0.246,0.075l-0.25,0.071l-0.25,0.071l-0.254,0.071l-0.255,0.066l-0.258,0.067l-0.262,0.067l-0.263,0.062l-0.267,0.059l-0.266,0.058l-0.271,0.058l-0.275,0.054l-0.275,0.055l-0.279,0.05l-0.279,0.05l-0.284,0.05l-0.287,0.045l-0.288,0.042l-0.291,0.046l-0.292,0.037l-0.296,0.042l-0.296,0.033l-0.304,0.038l-0.3,0.029l-0.308,0.033l-0.309,0.03l-0.308,0.025l-0.317,0.025l-0.312,0.025l-0.317,0.02l-0.316,0.017l-0.313,0.017l-0.308,0.016l-0.309,0.009l-0.304,0.012l-0.304,0.004l-0.3,0.009l-0.3,0l-0.296,0l-0.291,0l-0.292,-0.004l-0.292,-0.005l-0.287,-0.008l-0.288,-0.012l-0.283,-0.013l-0.279,-0.012l-0.279,-0.017l-0.28,-0.021l-0.27,-0.021l-0.275,-0.025l-0.271,-0.025l-0.267,-0.025l-0.267,-0.033l-0.262,-0.029l-0.263,-0.034l-0.262,-0.037l-0.254,-0.038l-0.259,-0.041l-0.254,-0.042l-0.25,-0.046l-0.25,-0.046l-0.246,-0.045l-0.245,-0.05l-0.242,-0.055l-0.242,-0.054l-0.237,-0.058l-0.238,-0.058l-0.233,-0.059l-0.233,-0.066l-0.23,-0.063l-0.225,-0.067l-0.225,-0.07l-0.225,-0.071l-0.22,-0.071l-0.221,-0.075l-0.217,-0.079l-0.212,-0.079l-0.213,-0.08l-0.212,-0.083l-0.209,-0.083l-0.204,-0.088l-0.204,-0.087l-0.204,-0.092l-0.2,-0.092l-0.196,-0.095l-0.196,-0.096l-0.192,-0.1l-0.191,-0.1l-0.188,-0.104l-0.187,-0.105l-0.184,-0.104l-0.183,-0.108l-0.179,-0.108l-0.175,-0.113l-0.175,-0.117l-0.175,-0.112l-0.171,-0.121l-0.167,-0.117l-0.166,-0.12l-0.163,-0.125l-0.162,-0.125l-0.159,-0.125l-0.154,-0.13l-0.154,-0.133l-0.154,-0.129l-0.146,-0.133l-0.15,-0.138l-0.142,-0.137l-0.141,-0.138l-0.138,-0.142l-0.137,-0.141l-0.134,-0.146l-0.133,-0.146l-0.129,-0.146l-0.125,-0.15l-0.125,-0.15l-0.121,-0.154l-0.121,-0.154l-0.116,-0.154l-0.113,-0.159l-0.112,-0.158l-0.109,-0.158l-0.104,-0.163l-0.104,-0.162l-0.1,-0.163l-0.096,-0.162l-0.096,-0.167l-0.091,-0.171l-0.092,-0.166l-0.088,-0.171l-0.083,-0.171l-0.083,-0.175l-0.079,-0.171l-0.075,-0.175l-0.075,-0.175l-0.071,-0.179l-0.067,-0.179l-0.067,-0.179l-0.062,-0.18l-0.058,-0.179l-0.059,-0.183l-0.054,-0.183l-0.05,-0.184l-0.05,-0.183l-0.046,-0.183l-0.046,-0.188l-0.041,-0.187l-0.038,-0.188l-0.037,-0.187l-0.034,-0.188l-0.029,-0.192l-0.029,-0.191l-0.025,-0.188l-0.021,-0.191l-0.021,-0.192l-0.016,-0.196l-0.017,-0.187l-10.558,-152.259l-0.013,-0.187l-0.008,-0.192l-0.008,-0.196l-0.005,-0.192l0,-0.191l0,-0.192l0.005,-0.192l0.008,-0.191l0.008,-0.192l0.013,-0.192l0.016,-0.191l0.017,-0.192l0.021,-0.187l0.021,-0.192l0.029,-0.188l0.029,-0.187l0.029,-0.188l0.034,-0.187l0.037,-0.188l0.042,-0.187l0.041,-0.183l0.046,-0.188l0.05,-0.183l0.05,-0.184l0.054,-0.183l0.059,-0.183l0.058,-0.179l0.063,-0.184l0.066,-0.179l0.071,-0.179l0.071,-0.175l0.071,-0.179l0.079,-0.175l0.079,-0.175l0.083,-0.175l0.084,-0.175l0.087,-0.171l0.092,-0.171l0.096,-0.171l0.096,-0.166l0.1,-0.167l0.1,-0.167l0.104,-0.166l0.108,-0.163l0.113,-0.162l0.112,-0.163l0.113,-0.158l0.12,-0.159l0.121,-0.158l0.125,-0.158l0.125,-0.154l0.129,-0.15l0.134,-0.155l0.133,-0.15l0.138,-0.15l0.137,-0.145l0.142,-0.146l0.146,-0.146l0.15,-0.142l0.145,-0.141l0.155,-0.142l0.154,-0.138l0.158,-0.137l0.163,-0.133l0.162,-0.134l0.163,-0.133l0.17,-0.129l0.167,-0.129l0.175,-0.13l0.175,-0.125l0.175,-0.125l0.183,-0.12l0.18,-0.121l0.187,-0.121l0.188,-0.117l0.187,-0.116l0.192,-0.117l0.196,-0.113l0.195,-0.108l0.2,-0.112l0.205,-0.109l0.204,-0.104l0.204,-0.104l0.212,-0.104l0.209,-0.1l0.216,-0.1l0.217,-0.096l0.217,-0.096l0.221,-0.096l0.225,-0.091l0.225,-0.092l0.229,-0.088l0.229,-0.087l0.233,-0.088l0.238,-0.083l0.237,-0.079l0.242,-0.083l0.242,-0.075l0.245,-0.08l0.246,-0.075l0.25,-0.07l0.254,-0.075l0.255,-0.067l0.258,-0.071l0.258,-0.067l0.263,-0.062l0.262,-0.063l0.267,-0.058l0.271,-0.062l0.271,-0.055l0.275,-0.058l0.275,-0.05l0.279,-0.054l0.283,-0.05l0.283,-0.046l0.288,-0.046l0.287,-0.046l0.292,-0.041l0.292,-0.038l0.296,-0.041l0.3,-0.034l0.3,-0.037l0.304,-0.034l0.308,-0.029l0.308,-0.029l0.309,-0.025l0.316,-0.025l0.313,-0.025l0.317,-0.021l0.316,-0.016l0.309,-0.017l0.312,-0.017l0.304,-0.008l0.304,-0.013l0.305,-0.004l0.3,-0.008l0.887,0l0.292,0.004l0.291,0.008l0.284,0.005l0.287,0.012l0.284,0.013l0.558,0.033l0.275,0.017l0.275,0.02l0.542,0.05l0.266,0.03l0.263,0.029l0.525,0.066l0.258,0.034l0.258,0.041l0.255,0.038l0.25,0.042l0.25,0.045l0.245,0.046l0.492,0.1l0.242,0.054l0.237,0.055l0.238,0.058l0.466,0.117l0.23,0.066l0.229,0.063l0.225,0.066l0.225,0.071l0.221,0.071l0.22,0.075l0.434,0.15l0.212,0.079l0.213,0.084l0.208,0.083l0.204,0.083l0.409,0.175l0.2,0.092l0.195,0.096l0.196,0.091l0.196,0.1l0.192,0.096l0.187,0.104l0.188,0.1l0.183,0.109l0.183,0.104l0.18,0.108l0.179,0.113l0.175,0.112l0.171,0.113l0.17,0.116l0.167,0.117l0.333,0.242l0.317,0.25l0.158,0.129l0.155,0.129l0.15,0.129l0.3,0.267l0.425,0.412l0.137,0.142l0.133,0.146l0.134,0.142l0.129,0.145l0.25,0.3l0.121,0.15l0.121,0.155l0.116,0.154l0.113,0.154l0.112,0.158l0.217,0.317l0.104,0.162l0.1,0.163l0.192,0.325l0.096,0.167l0.091,0.17l0.088,0.167l0.166,0.342l0.08,0.171l0.079,0.175l0.071,0.175l0.075,0.175l0.066,0.175l0.134,0.358l0.116,0.358l0.059,0.184l0.054,0.183l0.05,0.179l0.046,0.188l0.045,0.183l0.042,0.183l0.042,0.188l0.075,0.375l0.058,0.375l0.029,0.191l0.025,0.188l0.042,0.383l0.017,0.192l0.016,0.187l3.746,54.042l29.3,-2.033l-3.933,-56.713l-0.013,-0.175l-0.012,-0.175l-0.017,-0.175l-0.017,-0.175l-0.016,-0.171l-0.017,-0.17l-0.021,-0.171l-0.021,-0.171l-0.025,-0.171l-0.02,-0.171l-0.025,-0.166l-0.025,-0.171l-0.03,-0.167l-0.025,-0.167l-0.029,-0.166l-0.033,-0.163l-0.029,-0.166l-0.034,-0.167l-0.033,-0.163l-0.037,-0.162l-0.034,-0.163l-0.037,-0.162l-0.042,-0.163l-0.037,-0.158l-0.042,-0.162l-0.042,-0.159l-0.046,-0.158l-0.041,-0.158l-0.046,-0.159l-0.046,-0.154l-0.05,-0.158l-0.05,-0.154l-0.05,-0.159l-0.05,-0.154l-0.054,-0.154l-0.054,-0.15l-0.054,-0.154l-0.055,-0.154l-0.058,-0.15l-0.058,-0.15l-0.063,-0.15l-0.058,-0.15l-0.063,-0.15l-0.062,-0.146l-0.067,-0.15l-0.062,-0.146l-0.071,-0.146l-0.067,-0.146l-0.066,-0.146l-0.071,-0.145l-0.075,-0.142l-0.071,-0.146l-0.075,-0.142l-0.075,-0.141l-0.075,-0.142l-0.079,-0.142l-0.079,-0.141l-0.08,-0.138l-0.079,-0.141l-0.083,-0.138l-0.083,-0.137l-0.088,-0.138l-0.083,-0.137l-0.088,-0.134l-0.087,-0.137l-0.092,-0.134l-0.092,-0.137l-0.091,-0.133l-0.092,-0.134l-0.096,-0.129l-0.096,-0.133l-0.095,-0.129l-0.1,-0.134l-0.1,-0.129l-0.1,-0.129l-0.105,-0.129l-0.1,-0.129l-0.104,-0.125l-0.108,-0.13l-0.108,-0.125l-0.109,-0.129l-0.108,-0.125l-0.113,-0.125l-0.112,-0.121l-0.113,-0.125l-0.112,-0.12l-0.117,-0.125l-0.121,-0.121l-0.116,-0.121l-0.121,-0.121l-0.121,-0.117l-0.121,-0.12l-0.125,-0.117l-0.125,-0.121l-0.129,-0.117l-0.125,-0.116l-0.129,-0.117l-0.133,-0.112l-0.13,-0.117l-0.133,-0.113l-0.137,-0.112l-0.134,-0.117l-0.137,-0.108l-0.142,-0.113l-0.137,-0.112l-0.142,-0.108l-0.142,-0.113l-0.146,-0.108l-0.145,-0.109l-0.146,-0.104l-0.15,-0.108l-0.15,-0.108l-0.15,-0.105l-0.154,-0.104l-0.155,-0.104l-0.154,-0.104l-0.154,-0.104l-0.158,-0.1l-0.163,-0.104l-0.158,-0.1l-0.163,-0.1l-0.162,-0.1l-0.167,-0.096l-0.166,-0.1l-0.167,-0.096l-0.171,-0.096l-0.171,-0.096l-0.171,-0.096l-0.175,-0.095l-0.175,-0.092l-0.175,-0.096l-0.179,-0.092l-0.179,-0.091l-0.179,-0.092l-0.183,-0.087l-0.184,-0.092l-0.183,-0.088l-0.188,-0.087l-0.187,-0.088l-0.188,-0.087l-0.191,-0.083l-0.192,-0.088l-0.196,-0.083l-0.196,-0.084l-0.195,-0.079l-0.196,-0.083l-0.2,-0.079l-0.2,-0.084l-0.204,-0.079l-0.205,-0.079l-0.204,-0.075l-0.208,-0.079l-0.208,-0.075l-0.209,-0.075l-0.212,-0.075l-0.213,-0.075l-0.212,-0.071l-0.217,-0.071l-0.217,-0.071l-0.22,-0.07l-0.221,-0.071l-0.221,-0.067l-0.221,-0.071l-0.225,-0.066l-0.225,-0.067l-0.229,-0.063l-0.229,-0.066l-0.229,-0.063l-0.234,-0.062l-0.233,-0.063l-0.233,-0.062l-0.238,-0.059l-0.237,-0.058l-0.242,-0.058l-0.242,-0.059l-0.241,-0.058l-0.242,-0.054l-0.246,-0.054l-0.246,-0.054l-0.25,-0.055l-0.25,-0.05l-0.25,-0.054l-0.254,-0.05l-0.254,-0.046l-0.254,-0.05l-0.259,-0.045l-0.258,-0.05l-0.262,-0.046l-0.263,-0.042l-0.262,-0.046l-0.267,-0.041l-0.267,-0.042l-0.266,-0.042l-0.267,-0.041l-0.275,-0.038l-0.271,-0.037l-0.275,-0.038l-0.275,-0.037l-0.275,-0.034l-0.279,-0.033l-0.279,-0.033l-0.284,-0.034l-0.283,-0.033l-0.283,-0.029l-0.288,-0.029l-0.287,-0.03l-0.288,-0.025l-0.291,-0.029l-0.292,-0.025l-0.292,-0.021l-0.296,-0.025l-0.295,-0.02l-0.3,-0.025l-0.3,-0.017l-0.3,-0.021l-0.305,-0.017l-0.304,-0.02l-0.304,-0.017l-0.308,-0.013l-0.309,-0.016l-0.312,-0.013l-0.308,-0.012l-0.317,-0.009l-0.313,-0.012l-0.316,-0.008l-0.321,-0.009l-0.317,-0.008l-0.321,-0.004l-0.325,-0.004l-0.32,-0.005l-0.33,-0.004l-0.325,0l-0.329,0l-0.329,0Z" style="fill:#603812;"/></g><g><path d="M370.029,160.52c0,-7.067 -5.929,-12.642 -18.9,-12.642c-12.971,0 -19.088,5.575 -19.088,12.642l0,152.612c0,7.071 6.117,12.646 19.088,12.646c12.971,0 18.9,-5.575 18.9,-12.646l0,-152.612Zm-25.388,182.879c-31.504,0 -46.142,-11.35 -46.142,-27.579l0,-157.988c0,-16.229 14.638,-27.579 46.142,-27.579l12.788,0c31.687,0 46.141,11.35 46.141,27.579l0,157.988c0,16.229 -14.454,27.579 -46.141,27.579l-12.788,0Z" style="fill:#603812;fill-rule:nonzero;"/><path d="M357.804,128.174l0.375,0l0.375,0.004l0.371,0l0.37,0.008l0.367,0.004l0.367,0.009l0.366,0.004l0.367,0.012l0.363,0.009l0.358,0.012l0.362,0.013l0.355,0.012l0.358,0.013l0.354,0.016l0.354,0.013l0.35,0.021l0.354,0.016l0.346,0.021l0.35,0.017l0.346,0.025l0.342,0.021l0.346,0.021l0.337,0.025l0.342,0.025l0.337,0.029l0.338,0.025l0.337,0.029l0.334,0.029l0.329,0.029l0.333,0.034l0.329,0.033l0.325,0.033l0.329,0.034l0.325,0.033l1.284,0.15l0.633,0.083l0.625,0.084l0.313,0.045l0.925,0.138l0.304,0.05l0.304,0.046l0.304,0.05l0.3,0.054l0.3,0.05l0.3,0.054l0.592,0.108l0.291,0.055l0.584,0.116l0.862,0.175l0.85,0.188l0.279,0.066l0.28,0.063l0.279,0.067l0.275,0.066l0.275,0.071l0.275,0.067l0.541,0.141l0.267,0.071l0.267,0.075l0.266,0.071l0.267,0.075l0.525,0.15l0.775,0.238l0.508,0.158l0.255,0.083l0.75,0.25l0.737,0.263l0.483,0.175l0.238,0.091l0.242,0.092l0.237,0.092l0.467,0.183l0.466,0.192l0.23,0.096l0.229,0.1l0.225,0.095l0.675,0.3l0.221,0.105l0.22,0.1l0.65,0.312l0.85,0.433l0.209,0.109l0.204,0.112l0.208,0.109l0.204,0.112l0.2,0.113l0.205,0.116l0.2,0.113l0.195,0.116l0.2,0.117l0.196,0.121l0.192,0.117l0.575,0.362l0.375,0.242l0.187,0.125l0.367,0.25l0.179,0.125l0.538,0.387l0.35,0.259l0.171,0.133l0.17,0.129l0.171,0.133l0.167,0.134l0.171,0.137l0.162,0.134l0.167,0.137l0.162,0.138l0.159,0.137l0.162,0.142l0.159,0.137l0.154,0.142l0.158,0.142l0.154,0.141l0.15,0.142l0.45,0.437l0.292,0.292l0.142,0.15l0.141,0.146l0.284,0.3l0.137,0.154l0.133,0.15l0.138,0.154l0.133,0.154l0.129,0.155l0.134,0.154l0.129,0.154l0.5,0.633l0.242,0.317l0.35,0.487l0.112,0.163l0.113,0.167l0.112,0.162l0.325,0.5l0.104,0.167l0.104,0.171l0.1,0.166l0.3,0.513l0.096,0.171l0.092,0.17l0.275,0.525l0.262,0.525l0.084,0.18l0.079,0.175l0.083,0.179l0.079,0.179l0.075,0.179l0.08,0.179l0.075,0.184l0.07,0.179l0.213,0.55l0.133,0.366l0.063,0.184l0.062,0.187l0.063,0.184l0.175,0.562l0.108,0.375l0.05,0.192l0.05,0.187l0.05,0.192l0.046,0.192l0.05,0.187l0.042,0.192l0.045,0.196l0.042,0.191l0.038,0.192l0.037,0.196l0.038,0.191l0.037,0.196l0.067,0.392l0.029,0.196l0.033,0.196l0.025,0.195l0.029,0.196l0.025,0.2l0.025,0.196l0.063,0.6l0.017,0.196l0.016,0.204l0.017,0.2l0.025,0.4l0.008,0.204l0.013,0.2l0.008,0.204l0.017,0.813l0,158.396l-0.004,0.204l-0.005,0.204l-0.004,0.204l-0.004,0.205l-0.008,0.204l-0.013,0.2l-0.008,0.2l-0.013,0.204l-0.012,0.2l-0.017,0.2l-0.016,0.2l-0.017,0.2l-0.021,0.2l-0.021,0.2l-0.021,0.2l-0.025,0.196l-0.025,0.196l-0.029,0.2l-0.025,0.195l-0.033,0.196l-0.029,0.196l-0.034,0.196l-0.033,0.196l-0.037,0.196l-0.038,0.191l-0.037,0.196l-0.038,0.192l-0.042,0.191l-0.045,0.192l-0.042,0.192l-0.05,0.191l-0.046,0.192l-0.05,0.192l-0.05,0.187l-0.05,0.192l-0.054,0.187l-0.054,0.188l-0.059,0.187l-0.058,0.188l-0.058,0.183l-0.063,0.188l-0.062,0.187l-0.063,0.184l-0.066,0.183l-0.067,0.183l-0.071,0.184l-0.071,0.183l-0.071,0.183l-0.07,0.179l-0.075,0.184l-0.08,0.179l-0.075,0.179l-0.079,0.179l-0.083,0.179l-0.079,0.175l-0.084,0.18l-0.087,0.175l-0.088,0.175l-0.087,0.175l-0.092,0.175l-0.091,0.175l-0.092,0.17l-0.092,0.175l-0.1,0.171l-0.096,0.171l-0.1,0.171l-0.1,0.171l-0.1,0.166l-0.104,0.171l-0.104,0.167l-0.108,0.167l-0.109,0.166l-0.108,0.167l-0.112,0.162l-0.113,0.167l-0.112,0.163l-0.117,0.162l-0.117,0.163l-0.116,0.158l-0.121,0.162l-0.121,0.159l-0.125,0.158l-0.125,0.158l-0.125,0.159l-0.125,0.158l-0.129,0.154l-0.134,0.154l-0.129,0.155l-0.133,0.154l-0.138,0.154l-0.133,0.15l-0.137,0.154l-0.142,0.15l-0.142,0.15l-0.141,0.146l-0.142,0.15l-0.146,0.146l-0.146,0.146l-0.15,0.145l-0.15,0.146l-0.15,0.142l-0.154,0.146l-0.15,0.141l-0.158,0.142l-0.154,0.142l-0.159,0.137l-0.162,0.142l-0.159,0.137l-0.162,0.138l-0.167,0.133l-0.162,0.138l-0.171,0.133l-0.167,0.138l-0.171,0.129l-0.17,0.133l-0.171,0.133l-0.175,0.13l-0.175,0.129l-0.179,0.129l-0.18,0.129l-0.179,0.125l-0.179,0.129l-0.183,0.125l-0.184,0.125l-0.187,0.121l-0.188,0.125l-0.187,0.121l-0.192,0.121l-0.191,0.121l-0.192,0.12l-0.192,0.117l-0.196,0.117l-0.2,0.116l-0.195,0.117l-0.2,0.117l-0.205,0.112l-0.2,0.117l-0.204,0.108l-0.208,0.113l-0.204,0.112l-0.209,0.109l-0.212,0.108l-0.213,0.108l-0.212,0.109l-0.213,0.104l-0.216,0.108l-0.217,0.104l-0.217,0.104l-0.22,0.1l-0.221,0.105l-0.225,0.1l-0.225,0.1l-0.225,0.1l-0.225,0.095l-0.229,0.1l-0.23,0.096l-0.233,0.096l-0.233,0.092l-0.234,0.096l-0.233,0.091l-0.237,0.092l-0.242,0.092l-0.238,0.091l-0.241,0.088l-0.242,0.087l-0.246,0.088l-0.246,0.087l-0.245,0.084l-0.25,0.087l-0.25,0.083l-0.25,0.084l-0.255,0.079l-0.254,0.083l-0.254,0.079l-0.258,0.08l-0.259,0.079l-0.258,0.075l-0.262,0.079l-0.263,0.075l-0.267,0.075l-0.266,0.071l-0.267,0.075l-0.267,0.071l-0.27,0.07l-0.271,0.071l-0.275,0.067l-0.275,0.071l-0.275,0.066l-0.279,0.063l-0.28,0.067l-0.279,0.066l-0.283,0.063l-0.283,0.062l-0.284,0.059l-0.287,0.062l-0.288,0.058l-0.287,0.059l-0.292,0.058l-0.292,0.058l-0.291,0.055l-0.296,0.054l-0.296,0.054l-0.3,0.054l-0.3,0.05l-0.3,0.05l-0.304,0.05l-0.304,0.05l-0.304,0.05l-0.309,0.046l-0.308,0.046l-0.308,0.046l-0.313,0.041l-0.312,0.046l-0.313,0.042l-0.317,0.041l-0.316,0.038l-0.321,0.042l-0.321,0.037l-0.321,0.038l-0.321,0.037l-0.325,0.033l-0.329,0.034l-0.325,0.033l-0.329,0.033l-0.333,0.034l-0.329,0.029l-0.338,0.029l-0.333,0.029l-0.338,0.025l-0.337,0.025l-0.342,0.029l-0.337,0.021l-0.346,0.025l-0.342,0.021l-0.346,0.021l-0.35,0.021l-0.346,0.021l-0.354,0.016l-0.35,0.017l-0.354,0.017l-0.354,0.016l-0.358,0.013l-0.355,0.012l-0.362,0.013l-0.358,0.012l-0.363,0.009l-0.367,0.008l-0.366,0.008l-0.367,0.009l-0.367,0.004l-0.37,0.004l-0.371,0.004l-0.375,0.004l-0.375,0l-0.375,0l-12.792,0l-0.371,0l-0.371,0l-0.375,-0.004l-0.366,-0.004l-0.371,-0.004l-0.367,-0.004l-0.362,-0.009l-0.367,-0.008l-0.362,-0.008l-0.359,-0.009l-0.358,-0.012l-0.358,-0.013l-0.359,-0.012l-0.354,-0.013l-0.354,-0.016l-0.35,-0.017l-0.35,-0.017l-0.35,-0.016l-0.346,-0.021l-0.346,-0.021l-0.346,-0.021l-0.341,-0.021l-0.342,-0.025l-0.342,-0.021l-0.337,-0.029l-0.338,-0.025l-0.333,-0.025l-0.337,-0.029l-0.33,-0.029l-0.333,-0.029l-0.329,-0.034l-0.329,-0.033l-0.325,-0.033l-0.325,-0.034l-0.325,-0.033l-0.321,-0.037l-0.321,-0.038l-0.321,-0.037l-0.316,-0.042l-0.317,-0.038l-0.313,-0.041l-0.316,-0.042l-0.313,-0.046l-0.308,-0.041l-0.308,-0.046l-0.309,-0.046l-0.308,-0.046l-0.304,-0.05l-0.3,-0.05l-0.304,-0.05l-0.3,-0.05l-0.3,-0.05l-0.296,-0.054l-0.296,-0.054l-0.296,-0.054l-0.292,-0.055l-0.291,-0.058l-0.292,-0.058l-0.287,-0.059l-0.288,-0.058l-0.283,-0.062l-0.288,-0.059l-0.279,-0.062l-0.283,-0.063l-0.279,-0.066l-0.28,-0.067l-0.279,-0.063l-0.275,-0.07l-0.275,-0.067l-0.271,-0.067l-0.27,-0.071l-0.271,-0.07l-0.267,-0.071l-0.271,-0.075l-0.262,-0.071l-0.267,-0.075l-0.263,-0.075l-0.262,-0.079l-0.258,-0.075l-0.259,-0.079l-0.258,-0.08l-0.254,-0.079l-0.254,-0.083l-0.255,-0.079l-0.25,-0.084l-0.25,-0.083l-0.25,-0.087l-0.245,-0.084l-0.246,-0.087l-0.246,-0.088l-0.242,-0.087l-0.241,-0.088l-0.238,-0.091l-0.242,-0.092l-0.237,-0.092l-0.233,-0.091l-0.234,-0.096l-0.233,-0.092l-0.233,-0.096l-0.23,-0.096l-0.229,-0.1l-0.225,-0.095l-0.229,-0.1l-0.225,-0.1l-0.221,-0.1l-0.221,-0.105l-0.22,-0.1l-0.221,-0.104l-0.217,-0.104l-0.217,-0.104l-0.212,-0.108l-0.213,-0.109l-0.212,-0.108l-0.208,-0.108l-0.213,-0.109l-0.204,-0.112l-0.208,-0.109l-0.205,-0.112l-0.204,-0.113l-0.2,-0.116l-0.2,-0.113l-0.2,-0.116l-0.196,-0.117l-0.195,-0.117l-0.196,-0.121l-0.196,-0.12l-0.192,-0.117l-0.187,-0.121l-0.192,-0.125l-0.187,-0.121l-0.184,-0.125l-0.187,-0.125l-0.184,-0.125l-0.179,-0.125l-0.183,-0.129l-0.179,-0.125l-0.175,-0.129l-0.175,-0.129l-0.175,-0.134l-0.175,-0.129l-0.171,-0.133l-0.171,-0.133l-0.171,-0.134l-0.166,-0.133l-0.167,-0.138l-0.163,-0.137l-0.166,-0.138l-0.159,-0.137l-0.162,-0.138l-0.158,-0.141l-0.159,-0.138l-0.154,-0.141l-0.154,-0.142l-0.154,-0.146l-0.15,-0.142l-0.15,-0.145l-0.15,-0.146l-0.146,-0.146l-0.146,-0.146l-0.146,-0.15l-0.141,-0.15l-0.142,-0.146l-0.142,-0.15l-0.137,-0.154l-0.138,-0.15l-0.137,-0.154l-0.134,-0.154l-0.133,-0.154l-0.129,-0.155l-0.129,-0.154l-0.129,-0.158l-0.125,-0.158l-0.125,-0.155l-0.125,-0.162l-0.121,-0.158l-0.121,-0.159l-0.121,-0.162l-0.117,-0.163l-0.116,-0.162l-0.117,-0.163l-0.112,-0.166l-0.113,-0.163l-0.108,-0.167l-0.109,-0.166l-0.108,-0.167l-0.104,-0.167l-0.104,-0.166l-0.104,-0.171l-0.1,-0.171l-0.1,-0.167l-0.1,-0.175l-0.096,-0.17l-0.096,-0.171l-0.092,-0.175l-0.091,-0.171l-0.092,-0.175l-0.088,-0.175l-0.087,-0.179l-0.088,-0.175l-0.083,-0.175l-0.083,-0.179l-0.084,-0.18l-0.079,-0.179l-0.079,-0.179l-0.075,-0.179l-0.075,-0.179l-0.075,-0.184l-0.075,-0.183l-0.071,-0.179l-0.066,-0.183l-0.067,-0.184l-0.067,-0.187l-0.066,-0.184l-0.063,-0.183l-0.062,-0.187l-0.059,-0.188l-0.058,-0.187l-0.058,-0.188l-0.055,-0.187l-0.054,-0.188l-0.054,-0.192l-0.05,-0.187l-0.05,-0.192l-0.05,-0.191l-0.046,-0.192l-0.046,-0.192l-0.041,-0.191l-0.042,-0.192l-0.042,-0.192l-0.037,-0.196l-0.038,-0.191l-0.037,-0.196l-0.033,-0.196l-0.034,-0.196l-0.033,-0.196l-0.029,-0.195l-0.029,-0.196l-0.03,-0.2l-0.025,-0.196l-0.02,-0.2l-0.025,-0.2l-0.021,-0.196l-0.021,-0.2l-0.017,-0.2l-0.016,-0.2l-0.017,-0.2l-0.013,-0.204l-0.012,-0.2l-0.013,-0.204l-0.008,-0.2l-0.008,-0.204l-0.004,-0.205l-0.009,-0.2l-0.004,-0.204l0,-0.204l0,-0.204l0,-157.992l0,-0.204l0,-0.204l0.004,-0.204l0.009,-0.205l0.004,-0.2l0.008,-0.204l0.008,-0.204l0.013,-0.2l0.012,-0.2l0.013,-0.204l0.017,-0.2l0.016,-0.2l0.017,-0.2l0.021,-0.2l0.021,-0.2l0.025,-0.196l0.02,-0.2l0.025,-0.196l0.03,-0.2l0.029,-0.196l0.029,-0.195l0.033,-0.196l0.034,-0.196l0.033,-0.196l0.037,-0.196l0.038,-0.191l0.037,-0.196l0.042,-0.192l0.042,-0.192l0.041,-0.195l0.046,-0.192l0.046,-0.192l0.05,-0.187l0.05,-0.192l0.05,-0.187l0.054,-0.192l0.054,-0.188l0.055,-0.187l0.058,-0.188l0.058,-0.187l0.059,-0.188l0.062,-0.187l0.063,-0.183l0.066,-0.188l0.067,-0.183l0.067,-0.184l0.066,-0.183l0.071,-0.183l0.075,-0.179l0.075,-0.184l0.075,-0.179l0.075,-0.179l0.079,-0.183l0.079,-0.175l0.084,-0.18l0.083,-0.179l0.083,-0.175l0.088,-0.179l0.087,-0.175l0.088,-0.175l0.092,-0.175l0.091,-0.171l0.092,-0.175l0.096,-0.171l0.096,-0.175l0.1,-0.17l0.1,-0.171l0.1,-0.167l0.104,-0.171l0.104,-0.166l0.104,-0.171l0.108,-0.167l0.109,-0.162l0.108,-0.167l0.113,-0.167l0.112,-0.162l0.117,-0.163l0.116,-0.162l0.117,-0.163l0.121,-0.162l0.121,-0.159l0.121,-0.162l0.125,-0.158l0.125,-0.159l0.125,-0.154l0.129,-0.158l0.129,-0.154l0.129,-0.159l0.133,-0.154l0.134,-0.15l0.137,-0.154l0.138,-0.15l0.137,-0.154l0.142,-0.15l0.142,-0.15l0.141,-0.146l0.146,-0.15l0.146,-0.146l0.146,-0.146l0.15,-0.146l0.15,-0.145l0.15,-0.142l0.154,-0.146l0.154,-0.142l0.154,-0.141l0.159,-0.142l0.158,-0.137l0.162,-0.138l0.163,-0.142l0.162,-0.137l0.163,-0.133l0.167,-0.138l0.166,-0.133l0.171,-0.134l0.171,-0.133l0.171,-0.133l0.175,-0.134l0.175,-0.129l0.175,-0.129l0.175,-0.129l0.179,-0.129l0.183,-0.125l0.179,-0.125l0.184,-0.125l0.187,-0.125l0.184,-0.125l0.187,-0.125l0.192,-0.121l0.187,-0.121l0.192,-0.121l0.196,-0.116l0.196,-0.121l0.195,-0.117l0.196,-0.117l0.2,-0.116l0.2,-0.113l0.2,-0.116l0.204,-0.113l0.205,-0.112l0.208,-0.113l0.204,-0.108l0.213,-0.113l0.208,-0.108l0.212,-0.108l0.213,-0.105l0.212,-0.108l0.217,-0.104l0.217,-0.104l0.221,-0.104l0.22,-0.105l0.221,-0.1l0.221,-0.1l0.225,-0.1l0.229,-0.1l0.225,-0.1l0.229,-0.095l0.23,-0.096l0.233,-0.096l0.233,-0.096l0.234,-0.092l0.233,-0.091l0.237,-0.092l0.242,-0.092l0.238,-0.091l0.241,-0.088l0.242,-0.087l0.246,-0.088l0.246,-0.087l0.245,-0.088l0.25,-0.083l0.25,-0.083l0.25,-0.084l0.255,-0.083l0.254,-0.079l0.254,-0.079l0.258,-0.08l0.259,-0.079l0.258,-0.075l0.262,-0.079l0.263,-0.075l0.267,-0.075l0.262,-0.071l0.271,-0.075l0.267,-0.071l0.271,-0.07l0.27,-0.071l0.271,-0.067l0.275,-0.071l0.275,-0.066l0.279,-0.067l0.28,-0.063l0.279,-0.066l0.283,-0.063l0.279,-0.062l0.288,-0.063l0.283,-0.058l0.288,-0.058l0.287,-0.059l0.292,-0.058l0.291,-0.058l0.292,-0.055l0.296,-0.054l0.296,-0.054l0.296,-0.054l0.3,-0.05l0.3,-0.054l0.304,-0.05l0.3,-0.046l0.304,-0.05l0.308,-0.046l0.309,-0.046l0.308,-0.046l0.308,-0.045l0.313,-0.042l0.316,-0.042l0.313,-0.041l0.317,-0.042l0.316,-0.038l0.321,-0.037l0.321,-0.038l0.321,-0.037l0.325,-0.033l0.325,-0.034l0.325,-0.033l0.329,-0.033l0.329,-0.034l0.333,-0.029l0.33,-0.029l0.337,-0.029l0.333,-0.025l0.338,-0.029l0.337,-0.025l0.342,-0.025l0.342,-0.021l0.341,-0.021l0.346,-0.025l0.346,-0.017l0.346,-0.021l0.35,-0.016l0.35,-0.017l0.35,-0.017l0.354,-0.016l0.354,-0.013l0.359,-0.012l0.354,-0.013l0.362,-0.012l0.359,-0.009l0.362,-0.012l0.367,-0.004l0.362,-0.009l0.367,-0.004l0.371,-0.008l0.366,0l0.371,-0.004l0.375,0l0.371,-0.004l12.792,0l0.375,0.004Zm-13.163,4.162l-0.362,0.004l-0.363,0l-0.358,0.005l-0.358,0l-0.355,0.004l-0.358,0.008l-0.35,0.004l-0.354,0.009l-0.35,0.008l-0.346,0.012l-0.346,0.009l-0.346,0.012l-0.345,0.013l-0.342,0.012l-0.342,0.017l-0.337,0.012l-0.338,0.017l-0.333,0.021l-0.338,0.017l-0.329,0.02l-0.333,0.021l-0.329,0.021l-0.329,0.021l-0.325,0.025l-0.325,0.021l-0.325,0.025l-0.321,0.029l-0.321,0.025l-0.317,0.029l-0.316,0.029l-0.317,0.029l-0.313,0.034l-0.312,0.029l-0.313,0.033l-0.308,0.034l-0.308,0.033l-0.304,0.037l-0.305,0.038l-0.304,0.037l-0.3,0.038l-0.3,0.037l-0.3,0.042l-0.296,0.042l-0.295,0.041l-0.292,0.042l-0.292,0.046l-0.291,0.042l-0.288,0.045l-0.287,0.046l-0.288,0.05l-0.283,0.046l-0.284,0.05l-0.279,0.05l-0.279,0.05l-0.279,0.054l-0.275,0.05l-0.275,0.054l-0.275,0.055l-0.271,0.054l-0.271,0.058l-0.266,0.054l-0.267,0.059l-0.267,0.058l-0.266,0.058l-0.263,0.063l-0.258,0.062l-0.259,0.059l-0.258,0.062l-0.258,0.067l-0.254,0.062l-0.255,0.067l-0.25,0.067l-0.25,0.066l-0.25,0.067l-0.245,0.067l-0.246,0.07l-0.246,0.071l-0.242,0.071l-0.242,0.071l-0.237,0.071l-0.238,0.075l-0.237,0.075l-0.233,0.075l-0.234,0.075l-0.233,0.075l-0.229,0.075l-0.229,0.079l-0.23,0.079l-0.225,0.079l-0.22,0.079l-0.225,0.084l-0.221,0.079l-0.221,0.083l-0.217,0.084l-0.216,0.083l-0.213,0.083l-0.217,0.088l-0.212,0.087l-0.208,0.084l-0.209,0.087l-0.208,0.092l-0.204,0.087l-0.204,0.088l-0.205,0.091l-0.2,0.092l-0.2,0.092l-0.2,0.091l-0.195,0.096l-0.196,0.092l-0.196,0.096l-0.192,0.096l-0.191,0.095l-0.188,0.096l-0.187,0.096l-0.188,0.1l-0.183,0.096l-0.184,0.1l-0.183,0.1l-0.179,0.1l-0.179,0.1l-0.179,0.104l-0.175,0.104l-0.175,0.1l-0.171,0.104l-0.175,0.105l-0.167,0.104l-0.171,0.108l-0.166,0.104l-0.167,0.109l-0.163,0.108l-0.162,0.108l-0.163,0.109l-0.158,0.108l-0.158,0.108l-0.159,0.113l-0.154,0.112l-0.154,0.113l-0.154,0.108l-0.15,0.117l-0.15,0.112l-0.15,0.113l-0.146,0.116l-0.146,0.113l-0.141,0.117l-0.146,0.116l-0.142,0.117l-0.137,0.117l-0.138,0.12l-0.137,0.117l-0.138,0.121l-0.133,0.121l-0.134,0.116l-0.129,0.125l-0.133,0.121l-0.125,0.121l-0.129,0.121l-0.125,0.125l-0.125,0.125l-0.125,0.121l-0.121,0.125l-0.121,0.125l-0.117,0.129l-0.116,0.125l-0.117,0.125l-0.117,0.129l-0.112,0.129l-0.113,0.125l-0.112,0.129l-0.108,0.13l-0.109,0.133l-0.108,0.129l-0.104,0.129l-0.104,0.134l-0.105,0.133l-0.1,0.129l-0.1,0.133l-0.1,0.134l-0.095,0.137l-0.096,0.134l-0.096,0.133l-0.096,0.137l-0.092,0.138l-0.091,0.133l-0.088,0.138l-0.087,0.137l-0.088,0.142l-0.087,0.137l-0.084,0.138l-0.083,0.142l-0.083,0.141l-0.079,0.138l-0.08,0.141l-0.079,0.142l-0.079,0.146l-0.075,0.142l-0.075,0.141l-0.071,0.146l-0.075,0.142l-0.071,0.146l-0.066,0.145l-0.071,0.146l-0.067,0.146l-0.062,0.15l-0.067,0.146l-0.062,0.15l-0.063,0.146l-0.058,0.15l-0.063,0.15l-0.058,0.15l-0.054,0.15l-0.059,0.154l-0.054,0.15l-0.054,0.15l-0.05,0.154l-0.05,0.154l-0.05,0.154l-0.05,0.155l-0.046,0.154l-0.046,0.158l-0.045,0.154l-0.046,0.154l-0.042,0.159l-0.042,0.158l-0.037,0.158l-0.038,0.159l-0.037,0.158l-0.038,0.163l-0.033,0.158l-0.037,0.162l-0.03,0.159l-0.033,0.162l-0.029,0.163l-0.029,0.162l-0.029,0.167l-0.025,0.162l-0.025,0.163l-0.025,0.167l-0.021,0.166l-0.021,0.167l-0.021,0.167l-0.021,0.166l-0.016,0.167l-0.017,0.171l-0.017,0.166l-0.012,0.171l-0.013,0.171l-0.012,0.167l-0.013,0.171l-0.008,0.175l-0.008,0.17l-0.005,0.171l-0.008,0.175l-0.004,0.175l-0.004,0.171l0,158.688l0.008,0.35l0.008,0.171l0.005,0.175l0.016,0.341l0.05,0.684l0.017,0.166l0.017,0.171l0.016,0.167l0.084,0.666l0.025,0.163l0.025,0.167l0.025,0.162l0.029,0.163l0.029,0.166l0.029,0.163l0.033,0.158l0.03,0.163l0.037,0.162l0.033,0.158l0.038,0.163l0.112,0.475l0.042,0.158l0.042,0.154l0.046,0.159l0.045,0.154l0.046,0.158l0.046,0.154l0.15,0.463l0.05,0.15l0.054,0.154l0.054,0.15l0.059,0.154l0.054,0.15l0.058,0.15l0.063,0.15l0.058,0.146l0.125,0.3l0.067,0.146l0.062,0.146l0.067,0.15l0.071,0.146l0.066,0.145l0.071,0.142l0.075,0.146l0.071,0.146l0.15,0.283l0.317,0.567l0.083,0.141l0.083,0.138l0.084,0.142l0.35,0.55l0.183,0.275l0.096,0.133l0.096,0.137l0.191,0.267l0.3,0.4l0.105,0.133l0.104,0.13l0.104,0.133l0.217,0.258l0.108,0.134l0.112,0.125l0.225,0.258l0.117,0.129l0.35,0.375l0.121,0.129l0.371,0.371l0.379,0.367l0.133,0.121l0.129,0.12l0.267,0.242l0.138,0.121l0.275,0.233l0.137,0.121l0.142,0.117l0.146,0.116l0.141,0.113l0.292,0.233l0.45,0.338l0.462,0.337l0.159,0.109l0.158,0.112l0.158,0.108l0.488,0.325l0.167,0.105l0.166,0.108l0.171,0.104l0.171,0.108l0.342,0.209l0.175,0.1l0.175,0.104l0.179,0.1l0.179,0.104l0.179,0.1l0.367,0.2l0.183,0.096l0.188,0.1l0.375,0.192l0.383,0.191l0.196,0.096l0.196,0.092l0.195,0.096l0.6,0.275l0.205,0.087l0.204,0.092l0.204,0.087l0.625,0.263l0.212,0.087l0.217,0.084l0.213,0.087l0.433,0.167l0.221,0.079l0.221,0.083l0.225,0.079l0.22,0.084l0.23,0.079l0.225,0.079l0.229,0.075l0.229,0.079l0.7,0.225l0.475,0.15l0.237,0.071l0.484,0.142l0.246,0.071l0.246,0.066l0.245,0.071l0.75,0.2l0.255,0.067l0.254,0.062l1.033,0.25l0.263,0.059l0.266,0.062l0.267,0.058l0.267,0.055l0.266,0.058l0.271,0.058l0.271,0.054l0.55,0.109l0.275,0.05l0.279,0.054l0.558,0.1l0.284,0.05l0.283,0.046l0.288,0.046l0.287,0.05l0.288,0.045l0.291,0.042l0.292,0.046l0.292,0.042l0.591,0.083l0.3,0.042l0.6,0.075l0.609,0.075l0.304,0.033l0.308,0.037l0.308,0.034l0.313,0.033l0.312,0.029l0.313,0.034l0.95,0.087l0.642,0.05l0.975,0.075l0.658,0.042l0.333,0.021l0.329,0.02l0.338,0.017l0.333,0.017l0.675,0.033l0.342,0.017l0.342,0.012l0.691,0.025l0.346,0.009l0.346,0.012l0.35,0.008l0.354,0.005l0.35,0.008l1.429,0.017l14.238,0l0.362,-0.005l0.363,-0.004l0.358,-0.004l0.354,-0.004l0.354,-0.008l0.355,-0.005l0.354,-0.008l0.35,-0.012l0.346,-0.009l0.35,-0.012l0.341,-0.013l0.346,-0.012l0.342,-0.017l0.341,-0.017l0.338,-0.016l0.337,-0.017l0.338,-0.017l0.333,-0.02l0.334,-0.021l0.329,-0.021l0.329,-0.021l0.329,-0.025l0.325,-0.025l0.325,-0.025l0.325,-0.025l0.321,-0.025l0.321,-0.029l0.316,-0.029l0.317,-0.029l0.313,-0.034l0.316,-0.029l0.313,-0.033l0.308,-0.034l0.308,-0.037l0.309,-0.033l0.304,-0.038l0.304,-0.037l0.304,-0.038l0.3,-0.042l0.296,-0.037l0.3,-0.042l0.296,-0.041l0.296,-0.042l0.291,-0.046l0.292,-0.046l0.288,-0.041l0.287,-0.05l0.288,-0.046l0.283,-0.046l0.283,-0.05l0.284,-0.05l0.279,-0.05l0.279,-0.054l0.279,-0.05l0.275,-0.054l0.271,-0.055l0.275,-0.058l0.271,-0.054l0.266,-0.058l0.271,-0.055l0.263,-0.058l0.266,-0.062l0.263,-0.059l0.262,-0.062l0.259,-0.063l0.258,-0.062l0.258,-0.063l0.255,-0.062l0.254,-0.067l0.25,-0.067l0.25,-0.066l0.25,-0.067l0.246,-0.071l0.245,-0.066l0.246,-0.071l0.242,-0.071l0.242,-0.071l0.237,-0.075l0.238,-0.071l0.237,-0.075l0.233,-0.075l0.234,-0.075l0.233,-0.075l0.229,-0.079l0.229,-0.075l0.23,-0.079l0.225,-0.079l0.225,-0.084l0.22,-0.079l0.221,-0.079l0.221,-0.083l0.217,-0.084l0.216,-0.083l0.213,-0.087l0.212,-0.084l0.213,-0.087l0.212,-0.088l0.209,-0.087l0.204,-0.088l0.208,-0.087l0.204,-0.092l0.2,-0.087l0.205,-0.092l0.195,-0.092l0.2,-0.091l0.196,-0.096l0.196,-0.092l0.192,-0.096l0.191,-0.096l0.192,-0.095l0.188,-0.096l0.187,-0.096l0.188,-0.1l0.183,-0.096l0.183,-0.1l0.184,-0.1l0.179,-0.1l0.179,-0.1l0.175,-0.104l0.175,-0.1l0.175,-0.104l0.171,-0.104l0.171,-0.105l0.17,-0.104l0.167,-0.108l0.167,-0.104l0.166,-0.109l0.163,-0.108l0.162,-0.108l0.163,-0.109l0.158,-0.108l0.159,-0.108l0.154,-0.113l0.158,-0.108l0.15,-0.113l0.154,-0.112l0.15,-0.113l0.15,-0.112l0.146,-0.117l0.146,-0.112l0.146,-0.117l0.141,-0.117l0.146,-0.116l0.138,-0.117l0.141,-0.117l0.138,-0.116l0.133,-0.121l0.138,-0.117l0.133,-0.121l0.129,-0.12l0.134,-0.121l0.129,-0.121l0.129,-0.121l0.125,-0.125l0.125,-0.121l0.125,-0.125l0.121,-0.125l0.121,-0.121l0.12,-0.129l0.117,-0.125l0.117,-0.125l0.116,-0.125l0.113,-0.129l0.112,-0.129l0.113,-0.125l0.112,-0.129l0.109,-0.129l0.104,-0.134l0.108,-0.129l0.104,-0.129l0.105,-0.133l0.1,-0.134l0.104,-0.129l0.1,-0.133l0.096,-0.134l0.095,-0.137l0.096,-0.133l0.096,-0.134l0.092,-0.137l0.091,-0.138l0.092,-0.133l0.088,-0.138l0.087,-0.137l0.088,-0.142l0.087,-0.137l0.083,-0.138l0.084,-0.141l0.079,-0.138l0.079,-0.142l0.079,-0.141l0.079,-0.142l0.075,-0.142l0.075,-0.145l0.075,-0.142l0.075,-0.146l0.071,-0.142l0.067,-0.145l0.071,-0.146l0.066,-0.146l0.067,-0.146l0.067,-0.146l0.062,-0.15l0.063,-0.146l0.062,-0.15l0.059,-0.15l0.062,-0.15l0.054,-0.15l0.059,-0.15l0.054,-0.15l0.054,-0.154l0.054,-0.15l0.05,-0.154l0.05,-0.154l0.05,-0.154l0.05,-0.154l0.046,-0.155l0.046,-0.154l0.046,-0.158l0.041,-0.158l0.042,-0.155l0.042,-0.158l0.037,-0.158l0.038,-0.159l0.037,-0.158l0.038,-0.162l0.033,-0.159l0.033,-0.162l0.034,-0.163l0.029,-0.158l0.033,-0.167l0.025,-0.162l0.029,-0.163l0.025,-0.162l0.025,-0.167l0.025,-0.162l0.021,-0.167l0.025,-0.167l0.017,-0.166l0.021,-0.167l0.016,-0.171l0.017,-0.167l0.017,-0.17l0.012,-0.167l0.013,-0.171l0.012,-0.171l0.008,-0.171l0.013,-0.175l0.008,-0.17l0.004,-0.171l0.005,-0.175l0.004,-0.175l0.004,-0.175l0.004,-0.171l0,-0.179l0,-157.984l0,-0.179l-0.004,-0.175l-0.004,-0.175l-0.004,-0.171l-0.005,-0.175l-0.004,-0.171l-0.008,-0.175l-0.013,-0.17l-0.008,-0.171l-0.012,-0.171l-0.013,-0.171l-0.012,-0.167l-0.017,-0.17l-0.017,-0.167l-0.016,-0.171l-0.021,-0.167l-0.017,-0.166l-0.025,-0.167l-0.021,-0.167l-0.025,-0.162l-0.025,-0.167l-0.025,-0.162l-0.029,-0.167l-0.025,-0.162l-0.033,-0.163l-0.029,-0.162l-0.034,-0.159l-0.033,-0.162l-0.033,-0.159l-0.038,-0.162l-0.037,-0.158l-0.038,-0.159l-0.037,-0.158l-0.042,-0.158l-0.042,-0.159l-0.041,-0.154l-0.046,-0.158l-0.046,-0.154l-0.046,-0.155l-0.05,-0.154l-0.05,-0.154l-0.05,-0.154l-0.05,-0.154l-0.054,-0.15l-0.054,-0.154l-0.054,-0.15l-0.059,-0.15l-0.054,-0.15l-0.062,-0.15l-0.059,-0.15l-0.062,-0.15l-0.063,-0.146l-0.062,-0.15l-0.067,-0.146l-0.067,-0.146l-0.066,-0.146l-0.071,-0.146l-0.067,-0.145l-0.071,-0.146l-0.075,-0.142l-0.075,-0.146l-0.075,-0.141l-0.075,-0.142l-0.079,-0.142l-0.079,-0.141l-0.079,-0.142l-0.079,-0.138l-0.084,-0.141l-0.083,-0.138l-0.087,-0.141l-0.088,-0.138l-0.087,-0.137l-0.088,-0.138l-0.092,-0.137l-0.091,-0.134l-0.092,-0.137l-0.096,-0.134l-0.096,-0.137l-0.095,-0.133l-0.096,-0.134l-0.1,-0.133l-0.104,-0.133l-0.1,-0.13l-0.105,-0.133l-0.104,-0.129l-0.108,-0.133l-0.104,-0.13l-0.109,-0.129l-0.112,-0.129l-0.113,-0.129l-0.112,-0.125l-0.113,-0.129l-0.116,-0.125l-0.117,-0.125l-0.117,-0.129l-0.12,-0.125l-0.121,-0.125l-0.121,-0.121l-0.125,-0.125l-0.125,-0.125l-0.125,-0.121l-0.129,-0.121l-0.129,-0.121l-0.134,-0.121l-0.129,-0.12l-0.133,-0.121l-0.138,-0.121l-0.133,-0.117l-0.138,-0.116l-0.141,-0.117l-0.138,-0.121l-0.146,-0.112l-0.141,-0.117l-0.146,-0.117l-0.146,-0.112l-0.146,-0.117l-0.15,-0.112l-0.15,-0.113l-0.154,-0.112l-0.15,-0.113l-0.158,-0.108l-0.154,-0.113l-0.159,-0.108l-0.158,-0.113l-0.163,-0.108l-0.162,-0.108l-0.163,-0.104l-0.166,-0.109l-0.167,-0.108l-0.167,-0.104l-0.17,-0.104l-0.171,-0.105l-0.171,-0.104l-0.175,-0.104l-0.175,-0.1l-0.175,-0.104l-0.179,-0.1l-0.179,-0.1l-0.184,-0.1l-0.183,-0.1l-0.183,-0.1l-0.188,-0.096l-0.187,-0.096l-0.188,-0.1l-0.192,-0.096l-0.191,-0.091l-0.192,-0.096l-0.196,-0.096l-0.196,-0.092l-0.2,-0.091l-0.195,-0.092l-0.205,-0.092l-0.2,-0.091l-0.204,-0.088l-0.208,-0.087l-0.204,-0.092l-0.209,-0.087l-0.212,-0.084l-0.213,-0.087l-0.212,-0.088l-0.213,-0.083l-0.216,-0.083l-0.217,-0.084l-0.221,-0.083l-0.221,-0.079l-0.225,-0.084l-0.22,-0.079l-0.225,-0.079l-0.23,-0.079l-0.229,-0.079l-0.229,-0.075l-0.233,-0.075l-0.234,-0.075l-0.233,-0.075l-0.237,-0.075l-0.238,-0.075l-0.237,-0.071l-0.242,-0.071l-0.242,-0.071l-0.246,-0.071l-0.245,-0.07l-0.246,-0.067l-0.25,-0.067l-0.25,-0.066l-0.25,-0.067l-0.254,-0.067l-0.255,-0.062l-0.258,-0.067l-0.258,-0.062l-0.259,-0.059l-0.262,-0.062l-0.263,-0.059l-0.266,-0.062l-0.263,-0.058l-0.271,-0.059l-0.266,-0.054l-0.271,-0.058l-0.275,-0.054l-0.271,-0.055l-0.275,-0.054l-0.279,-0.05l-0.279,-0.054l-0.279,-0.05l-0.284,-0.05l-0.283,-0.05l-0.283,-0.046l-0.288,-0.05l-0.287,-0.046l-0.288,-0.045l-0.292,-0.042l-0.291,-0.046l-0.296,-0.042l-0.296,-0.041l-0.3,-0.042l-0.296,-0.042l-0.3,-0.037l-0.304,-0.038l-0.304,-0.037l-0.304,-0.038l-0.309,-0.037l-0.308,-0.033l-0.308,-0.034l-0.313,-0.033l-0.316,-0.029l-0.313,-0.034l-0.317,-0.029l-0.316,-0.029l-0.321,-0.029l-0.321,-0.025l-0.325,-0.029l-0.325,-0.025l-0.325,-0.021l-0.329,-0.025l-0.329,-0.021l-0.329,-0.021l-0.334,-0.021l-0.333,-0.02l-0.338,-0.017l-0.337,-0.021l-0.338,-0.017l-0.341,-0.012l-0.342,-0.017l-0.342,-0.012l-0.345,-0.013l-0.35,-0.012l-0.346,-0.009l-0.35,-0.012l-0.354,-0.008l-0.355,-0.009l-0.354,-0.004l-0.354,-0.008l-0.358,-0.004l-0.363,0l-0.362,-0.005l-0.363,0l-0.366,-0.004l-12.784,0Zm6.804,13.463l0.313,0l0.312,0.008l0.309,0.004l0.308,0.013l0.608,0.025l0.3,0.016l0.296,0.017l0.296,0.021l0.292,0.021l0.291,0.025l0.288,0.025l0.287,0.029l0.284,0.029l0.558,0.067l0.279,0.037l0.542,0.075l0.271,0.042l0.533,0.092l0.263,0.05l0.516,0.1l0.509,0.108l0.25,0.058l0.25,0.063l0.245,0.058l0.242,0.067l0.242,0.062l0.241,0.071l0.238,0.067l0.233,0.071l0.234,0.075l0.458,0.15l0.225,0.079l0.662,0.25l0.217,0.087l0.425,0.175l0.208,0.092l0.209,0.096l0.408,0.191l0.2,0.1l0.196,0.1l0.196,0.105l0.191,0.104l0.192,0.108l0.375,0.217l0.367,0.225l0.179,0.116l0.175,0.117l0.175,0.121l0.342,0.242l0.333,0.25l0.158,0.129l0.163,0.129l0.158,0.133l0.154,0.129l0.15,0.138l0.15,0.133l0.15,0.142l0.288,0.279l0.137,0.142l0.138,0.146l0.266,0.291l0.259,0.3l0.121,0.15l0.125,0.154l0.116,0.155l0.117,0.158l0.225,0.317l0.108,0.158l0.209,0.325l0.1,0.167l0.1,0.162l0.095,0.167l0.092,0.171l0.088,0.166l0.087,0.171l0.083,0.171l0.084,0.175l0.079,0.171l0.075,0.175l0.071,0.175l0.071,0.179l0.07,0.175l0.125,0.358l0.059,0.179l0.058,0.184l0.054,0.179l0.1,0.367l0.046,0.183l0.042,0.187l0.041,0.184l0.075,0.375l0.088,0.562l0.025,0.188l0.021,0.191l0.021,0.188l0.016,0.192l0.025,0.383l0.017,0.383l0.004,0.192l0,153l-0.004,0.192l-0.008,0.191l-0.009,0.192l-0.012,0.192l-0.013,0.191l-0.016,0.188l-0.021,0.192l-0.021,0.191l-0.025,0.188l-0.029,0.187l-0.029,0.188l-0.03,0.187l-0.037,0.188l-0.038,0.187l-0.041,0.184l-0.042,0.187l-0.046,0.183l-0.05,0.184l-0.05,0.183l-0.054,0.179l-0.058,0.184l-0.059,0.179l-0.062,0.179l-0.063,0.179l-0.07,0.179l-0.071,0.175l-0.071,0.175l-0.075,0.175l-0.079,0.175l-0.084,0.171l-0.083,0.171l-0.087,0.171l-0.088,0.171l-0.092,0.166l-0.095,0.167l-0.1,0.167l-0.1,0.162l-0.1,0.163l-0.109,0.162l-0.108,0.163l-0.113,0.158l-0.112,0.158l-0.117,0.154l-0.116,0.155l-0.125,0.154l-0.121,0.154l-0.129,0.15l-0.13,0.146l-0.133,0.15l-0.133,0.146l-0.138,0.141l-0.137,0.146l-0.146,0.142l-0.142,0.137l-0.15,0.138l-0.15,0.137l-0.15,0.134l-0.154,0.133l-0.158,0.133l-0.159,0.129l-0.162,0.125l-0.167,0.13l-0.166,0.12l-0.171,0.125l-0.171,0.121l-0.175,0.117l-0.175,0.121l-0.179,0.112l-0.184,0.117l-0.183,0.108l-0.183,0.113l-0.192,0.108l-0.192,0.108l-0.191,0.105l-0.196,0.1l-0.196,0.104l-0.2,0.096l-0.204,0.1l-0.204,0.095l-0.209,0.092l-0.208,0.092l-0.212,0.091l-0.213,0.088l-0.217,0.087l-0.22,0.084l-0.221,0.083l-0.221,0.079l-0.225,0.079l-0.229,0.08l-0.229,0.075l-0.234,0.07l-0.233,0.071l-0.238,0.071l-0.241,0.067l-0.242,0.066l-0.242,0.063l-0.245,0.062l-0.25,0.059l-0.25,0.058l-0.255,0.058l-0.254,0.055l-0.258,0.05l-0.258,0.05l-0.263,0.05l-0.267,0.045l-0.266,0.042l-0.271,0.042l-0.271,0.041l-0.271,0.038l-0.279,0.037l-0.279,0.034l-0.279,0.033l-0.284,0.029l-0.287,0.029l-0.288,0.025l-0.291,0.025l-0.292,0.021l-0.296,0.021l-0.296,0.017l-0.3,0.016l-0.304,0.013l-0.304,0.012l-0.308,0.009l-0.309,0.008l-0.312,0.004l-0.313,0.004l-0.316,0l-0.317,0l-0.317,-0.004l-0.312,-0.004l-0.308,-0.008l-0.309,-0.009l-0.304,-0.012l-0.304,-0.013l-0.3,-0.016l-0.296,-0.017l-0.296,-0.021l-0.296,-0.021l-0.291,-0.025l-0.288,-0.025l-0.287,-0.029l-0.284,-0.029l-0.279,-0.033l-0.283,-0.034l-0.275,-0.037l-0.275,-0.038l-0.271,-0.037l-0.271,-0.046l-0.271,-0.042l-0.262,-0.045l-0.267,-0.05l-0.258,-0.05l-0.263,-0.05l-0.254,-0.055l-0.254,-0.058l-0.254,-0.054l-0.25,-0.063l-0.246,-0.062l-0.246,-0.063l-0.241,-0.062l-0.242,-0.071l-0.238,-0.067l-0.237,-0.07l-0.233,-0.075l-0.234,-0.075l-0.229,-0.075l-0.225,-0.08l-0.225,-0.079l-0.225,-0.083l-0.217,-0.083l-0.22,-0.088l-0.217,-0.087l-0.213,-0.092l-0.212,-0.092l-0.208,-0.091l-0.205,-0.096l-0.204,-0.1l-0.204,-0.096l-0.2,-0.1l-0.196,-0.104l-0.196,-0.104l-0.191,-0.109l-0.192,-0.108l-0.187,-0.108l-0.188,-0.113l-0.179,-0.112l-0.183,-0.117l-0.18,-0.117l-0.175,-0.116l-0.175,-0.121l-0.17,-0.125l-0.171,-0.121l-0.167,-0.125l-0.162,-0.129l-0.163,-0.129l-0.158,-0.13l-0.159,-0.133l-0.154,-0.133l-0.15,-0.138l-0.15,-0.137l-0.146,-0.138l-0.145,-0.141l-0.142,-0.142l-0.142,-0.146l-0.133,-0.146l-0.138,-0.146l-0.129,-0.15l-0.129,-0.15l-0.129,-0.15l-0.121,-0.154l-0.121,-0.154l-0.121,-0.154l-0.116,-0.158l-0.113,-0.159l-0.108,-0.162l-0.108,-0.163l-0.109,-0.162l-0.1,-0.163l-0.1,-0.166l-0.096,-0.167l-0.095,-0.167l-0.092,-0.171l-0.088,-0.17l-0.087,-0.171l-0.083,-0.171l-0.08,-0.175l-0.079,-0.175l-0.075,-0.175l-0.071,-0.179l-0.07,-0.175l-0.067,-0.179l-0.063,-0.18l-0.062,-0.183l-0.058,-0.179l-0.055,-0.183l-0.054,-0.184l-0.05,-0.183l-0.046,-0.183l-0.045,-0.188l-0.042,-0.183l-0.038,-0.188l-0.037,-0.187l-0.033,-0.188l-0.034,-0.191l-0.025,-0.188l-0.025,-0.192l-0.025,-0.187l-0.021,-0.192l-0.016,-0.191l-0.013,-0.192l-0.012,-0.192l-0.009,-0.191l-0.008,-0.196l-0.004,-0.192l0,-0.187l0,-152.626l0,-0.187l0.004,-0.192l0.008,-0.196l0.009,-0.191l0.012,-0.192l0.013,-0.192l0.016,-0.191l0.021,-0.192l0.025,-0.187l0.025,-0.192l0.025,-0.188l0.034,-0.191l0.033,-0.188l0.037,-0.187l0.038,-0.184l0.042,-0.187l0.045,-0.188l0.046,-0.183l0.05,-0.183l0.054,-0.184l0.055,-0.183l0.058,-0.179l0.062,-0.183l0.063,-0.18l0.067,-0.179l0.07,-0.175l0.071,-0.179l0.075,-0.175l0.079,-0.175l0.08,-0.171l0.083,-0.175l0.087,-0.171l0.088,-0.17l0.092,-0.167l0.095,-0.171l0.096,-0.167l0.1,-0.162l0.1,-0.167l0.109,-0.162l0.108,-0.163l0.108,-0.158l0.113,-0.158l0.116,-0.159l0.121,-0.154l0.121,-0.158l0.121,-0.15l0.129,-0.154l0.129,-0.15l0.129,-0.146l0.138,-0.15l0.133,-0.146l0.142,-0.142l0.142,-0.141l0.145,-0.142l0.146,-0.138l0.15,-0.137l0.15,-0.138l0.154,-0.133l0.159,-0.133l0.158,-0.129l0.163,-0.13l0.162,-0.129l0.167,-0.125l0.171,-0.125l0.17,-0.121l0.175,-0.12l0.175,-0.121l0.18,-0.117l0.183,-0.112l0.183,-0.117l0.184,-0.108l0.187,-0.113l0.192,-0.108l0.191,-0.104l0.196,-0.105l0.196,-0.104l0.2,-0.1l0.204,-0.1l0.204,-0.096l0.205,-0.095l0.208,-0.092l0.212,-0.092l0.213,-0.091l0.217,-0.088l0.22,-0.087l0.217,-0.084l0.225,-0.083l0.225,-0.079l0.225,-0.079l0.229,-0.075l0.234,-0.075l0.233,-0.075l0.237,-0.071l0.238,-0.071l0.242,-0.067l0.241,-0.062l0.246,-0.067l0.246,-0.058l0.25,-0.063l0.254,-0.058l0.254,-0.054l0.254,-0.054l0.263,-0.05l0.258,-0.05l0.267,-0.05l0.262,-0.046l0.271,-0.046l0.271,-0.042l0.271,-0.037l0.275,-0.038l0.275,-0.037l0.283,-0.034l0.279,-0.033l0.284,-0.029l0.287,-0.029l0.288,-0.025l0.291,-0.025l0.296,-0.021l0.296,-0.021l0.296,-0.017l0.3,-0.016l0.304,-0.013l0.304,-0.012l0.309,-0.013l0.308,-0.004l0.312,-0.008l0.317,0l0.317,-0.004l0.316,0.004Zm-0.604,4.166l-0.287,0l-0.284,0.005l-0.283,0.008l-0.275,0.008l-0.275,0.013l-0.275,0.012l-0.271,0.013l-0.266,0.016l-0.263,0.017l-0.262,0.021l-0.259,0.021l-0.258,0.025l-0.254,0.025l-0.25,0.025l-0.25,0.029l-0.246,0.029l-0.246,0.033l-0.242,0.034l-0.237,0.033l-0.233,0.038l-0.234,0.037l-0.229,0.042l-0.229,0.041l-0.225,0.042l-0.225,0.046l-0.217,0.046l-0.216,0.046l-0.217,0.05l-0.213,0.05l-0.208,0.054l-0.208,0.05l-0.204,0.058l-0.2,0.054l-0.2,0.059l-0.196,0.058l-0.192,0.062l-0.192,0.059l-0.187,0.066l-0.188,0.063l-0.183,0.067l-0.179,0.066l-0.179,0.067l-0.175,0.071l-0.175,0.071l-0.171,0.07l-0.167,0.075l-0.166,0.071l-0.163,0.075l-0.158,0.079l-0.159,0.075l-0.158,0.08l-0.15,0.079l-0.15,0.083l-0.15,0.079l-0.146,0.084l-0.141,0.083l-0.142,0.083l-0.138,0.088l-0.137,0.087l-0.133,0.084l-0.13,0.091l-0.129,0.088l-0.125,0.091l-0.125,0.088l-0.121,0.092l-0.12,0.095l-0.117,0.092l-0.113,0.096l-0.112,0.092l-0.113,0.095l-0.108,0.096l-0.104,0.1l-0.104,0.096l-0.1,0.1l-0.1,0.1l-0.096,0.1l-0.096,0.1l-0.092,0.1l-0.091,0.104l-0.088,0.104l-0.087,0.105l-0.084,0.104l-0.083,0.104l-0.079,0.104l-0.079,0.108l-0.075,0.105l-0.075,0.108l-0.071,0.108l-0.071,0.109l-0.071,0.112l-0.066,0.108l-0.063,0.113l-0.062,0.112l-0.063,0.113l-0.058,0.112l-0.059,0.113l-0.054,0.112l-0.054,0.117l-0.05,0.117l-0.05,0.116l-0.05,0.117l-0.046,0.117l-0.041,0.121l-0.046,0.12l-0.038,0.117l-0.041,0.121l-0.038,0.125l-0.033,0.121l-0.034,0.125l-0.033,0.121l-0.029,0.125l-0.029,0.125l-0.025,0.129l-0.025,0.125l-0.021,0.129l-0.025,0.129l-0.017,0.129l-0.016,0.129l-0.017,0.13l-0.013,0.133l-0.012,0.133l-0.013,0.134l-0.008,0.133l-0.004,0.133l-0.004,0.138l-0.004,0.137l0,152.884l0.008,0.275l0.004,0.133l0.008,0.133l0.038,0.4l0.05,0.388l0.025,0.129l0.021,0.129l0.025,0.125l0.025,0.129l0.058,0.25l0.033,0.125l0.034,0.121l0.033,0.125l0.038,0.121l0.041,0.121l0.038,0.121l0.046,0.116l0.041,0.121l0.046,0.117l0.15,0.35l0.054,0.117l0.054,0.112l0.059,0.117l0.058,0.112l0.125,0.225l0.063,0.109l0.066,0.112l0.213,0.325l0.15,0.217l0.079,0.104l0.079,0.108l0.167,0.209l0.175,0.208l0.091,0.1l0.092,0.104l0.192,0.2l0.1,0.1l0.204,0.196l0.104,0.096l0.108,0.096l0.338,0.287l0.117,0.092l0.241,0.183l0.25,0.183l0.259,0.175l0.133,0.088l0.137,0.087l0.138,0.084l0.142,0.087l0.141,0.084l0.146,0.083l0.15,0.079l0.15,0.083l0.15,0.08l0.158,0.075l0.159,0.079l0.158,0.075l0.163,0.075l0.333,0.15l0.171,0.071l0.175,0.07l0.175,0.067l0.179,0.071l0.179,0.067l0.183,0.066l0.375,0.125l0.384,0.125l0.196,0.059l0.2,0.058l0.2,0.054l0.204,0.054l0.416,0.109l0.213,0.05l0.217,0.05l0.433,0.091l0.225,0.046l0.45,0.083l0.233,0.042l0.467,0.075l0.237,0.033l0.242,0.034l0.246,0.033l0.246,0.029l0.25,0.029l0.25,0.025l0.254,0.025l0.258,0.025l0.259,0.021l0.262,0.021l0.263,0.017l0.266,0.016l0.271,0.013l0.55,0.025l0.275,0.008l0.854,0.013l0.575,0l0.288,-0.004l0.283,-0.005l0.279,-0.004l0.279,-0.008l0.275,-0.013l0.271,-0.012l0.271,-0.013l0.267,-0.016l0.262,-0.017l0.263,-0.021l0.258,-0.021l0.254,-0.025l0.254,-0.025l0.25,-0.025l0.25,-0.029l0.242,-0.029l0.246,-0.033l0.237,-0.034l0.238,-0.033l0.233,-0.037l0.234,-0.038l0.229,-0.042l0.225,-0.041l0.225,-0.042l0.221,-0.046l0.216,-0.046l0.217,-0.045l0.212,-0.05l0.209,-0.05l0.208,-0.055l0.204,-0.05l0.204,-0.058l0.2,-0.054l0.196,-0.058l0.196,-0.059l0.192,-0.062l0.187,-0.059l0.188,-0.062l0.183,-0.067l0.179,-0.066l0.179,-0.067l0.175,-0.067l0.175,-0.066l0.171,-0.071l0.167,-0.075l0.167,-0.071l0.162,-0.075l0.163,-0.075l0.158,-0.075l0.154,-0.075l0.154,-0.079l0.15,-0.079l0.146,-0.084l0.146,-0.079l0.146,-0.083l0.137,-0.084l0.138,-0.083l0.137,-0.083l0.134,-0.088l0.129,-0.087l0.129,-0.088l0.129,-0.087l0.121,-0.092l0.125,-0.092l0.117,-0.087l0.116,-0.096l0.117,-0.092l0.112,-0.091l0.109,-0.096l0.108,-0.096l0.104,-0.096l0.104,-0.096l0.1,-0.1l0.1,-0.095l0.1,-0.1l0.092,-0.1l0.096,-0.1l0.087,-0.1l0.092,-0.105l0.083,-0.1l0.088,-0.104l0.079,-0.104l0.083,-0.104l0.08,-0.108l0.075,-0.105l0.075,-0.108l0.07,-0.108l0.071,-0.109l0.071,-0.108l0.067,-0.108l0.066,-0.109l0.063,-0.112l0.058,-0.113l0.063,-0.112l0.058,-0.113l0.054,-0.112l0.054,-0.117l0.055,-0.116l0.05,-0.117l0.045,-0.117l0.05,-0.116l0.042,-0.117l0.046,-0.121l0.042,-0.121l0.037,-0.121l0.042,-0.12l0.033,-0.121l0.033,-0.125l0.034,-0.121l0.033,-0.125l0.029,-0.125l0.025,-0.129l0.029,-0.125l0.021,-0.129l0.025,-0.13l0.021,-0.125l0.017,-0.133l0.016,-0.129l0.017,-0.133l0.013,-0.134l0.012,-0.133l0.008,-0.133l0.009,-0.134l0.008,-0.137l0.004,-0.138l0.004,-0.133l0,-0.146l0,-152.6l0,-0.146l-0.004,-0.137l-0.004,-0.134l-0.008,-0.137l-0.009,-0.134l-0.008,-0.133l-0.012,-0.133l-0.013,-0.134l-0.017,-0.133l-0.016,-0.129l-0.017,-0.129l-0.021,-0.129l-0.025,-0.13l-0.021,-0.129l-0.029,-0.125l-0.025,-0.129l-0.029,-0.125l-0.033,-0.121l-0.029,-0.125l-0.038,-0.125l-0.033,-0.121l-0.042,-0.12l-0.037,-0.121l-0.042,-0.121l-0.046,-0.117l-0.042,-0.121l-0.05,-0.116l-0.045,-0.117l-0.05,-0.117l-0.055,-0.116l-0.054,-0.113l-0.054,-0.112l-0.058,-0.117l-0.063,-0.112l-0.058,-0.109l-0.063,-0.112l-0.066,-0.113l-0.067,-0.108l-0.071,-0.108l-0.071,-0.109l-0.07,-0.108l-0.075,-0.104l-0.075,-0.109l-0.08,-0.104l-0.079,-0.104l-0.083,-0.104l-0.088,-0.104l-0.083,-0.104l-0.092,-0.1l-0.087,-0.1l-0.096,-0.1l-0.092,-0.1l-0.1,-0.1l-0.095,-0.1l-0.105,-0.096l-0.104,-0.096l-0.104,-0.096l-0.108,-0.096l-0.109,-0.096l-0.112,-0.091l-0.117,-0.096l-0.116,-0.092l-0.117,-0.091l-0.125,-0.088l-0.121,-0.092l-0.129,-0.087l-0.125,-0.088l-0.133,-0.087l-0.134,-0.088l-0.137,-0.083l-0.138,-0.083l-0.137,-0.084l-0.146,-0.083l-0.146,-0.083l-0.146,-0.079l-0.15,-0.08l-0.154,-0.079l-0.154,-0.075l-0.158,-0.079l-0.163,-0.075l-0.162,-0.071l-0.167,-0.075l-0.167,-0.071l-0.171,-0.07l-0.175,-0.067l-0.175,-0.071l-0.179,-0.067l-0.179,-0.062l-0.183,-0.067l-0.188,-0.062l-0.187,-0.063l-0.192,-0.058l-0.196,-0.058l-0.196,-0.059l-0.2,-0.058l-0.204,-0.054l-0.204,-0.054l-0.208,-0.05l-0.209,-0.05l-0.212,-0.05l-0.217,-0.046l-0.216,-0.05l-0.221,-0.042l-0.225,-0.046l-0.225,-0.037l-0.229,-0.042l-0.234,-0.037l-0.233,-0.038l-0.238,-0.033l-0.237,-0.034l-0.246,-0.033l-0.242,-0.029l-0.25,-0.029l-0.25,-0.025l-0.254,-0.025l-0.254,-0.025l-0.258,-0.021l-0.263,-0.021l-0.262,-0.017l-0.267,-0.016l-0.271,-0.013l-0.271,-0.012l-0.275,-0.013l-0.279,-0.008l-0.279,-0.008l-0.283,-0.005l-0.288,0l-0.287,-0.004l-0.288,0.004Z" style="fill:#603812;"/></g><g><path d="M504.625,136.365c0,-7.066 -5.93,-12.641 -18.905,-12.641l-19.079,0l0,101.346l19.079,0c12.975,0 18.905,-5.58 18.905,-12.646l0,-76.059Zm-71.534,191.83l0,-221.992l58.934,0c31.687,0 46.141,11.346 46.141,27.575l0,81.233c0,8.263 -3.708,27.58 -46.141,27.58l-25.384,0l0,85.604l-33.55,0Z" style="fill:#603812;fill-rule:nonzero;"/><path d="M492.404,104.12l0.375,0l0.746,0.008l0.737,0.008l0.733,0.017l0.725,0.017l0.363,0.012l1.075,0.038l0.708,0.033l0.7,0.033l0.35,0.021l1.038,0.063l0.341,0.025l0.342,0.02l0.342,0.025l0.337,0.03l0.338,0.025l1,0.087l0.987,0.1l0.65,0.067l0.325,0.037l0.642,0.075l0.321,0.042l0.316,0.037l0.313,0.042l0.317,0.042l0.312,0.046l0.313,0.041l0.925,0.138l0.608,0.1l0.304,0.046l0.3,0.054l0.3,0.05l1.183,0.216l0.584,0.117l0.862,0.175l0.85,0.188l0.279,0.066l0.28,0.063l0.279,0.066l0.275,0.067l0.275,0.071l0.271,0.067l0.812,0.212l0.267,0.075l0.266,0.071l0.788,0.225l0.262,0.079l0.259,0.079l0.254,0.079l0.258,0.08l0.254,0.079l0.25,0.083l0.255,0.083l0.25,0.084l0.245,0.083l0.25,0.088l0.246,0.087l0.242,0.083l0.246,0.092l0.241,0.088l0.95,0.366l0.234,0.092l0.233,0.096l0.229,0.096l0.234,0.095l0.225,0.096l0.229,0.1l0.45,0.2l0.221,0.1l0.225,0.1l0.216,0.104l0.221,0.105l0.433,0.208l0.213,0.108l0.212,0.104l0.213,0.109l0.208,0.108l0.209,0.113l0.208,0.108l0.612,0.337l0.2,0.117l0.2,0.113l0.2,0.116l0.392,0.234l0.196,0.12l0.192,0.117l0.383,0.242l0.187,0.125l0.188,0.121l0.183,0.125l0.188,0.125l0.179,0.125l0.183,0.125l0.179,0.129l0.18,0.125l0.175,0.129l0.179,0.129l0.171,0.133l0.175,0.13l0.341,0.266l0.334,0.267l0.166,0.137l0.488,0.413l0.158,0.137l0.159,0.142l0.158,0.138l0.154,0.141l0.154,0.146l0.154,0.142l0.15,0.141l0.15,0.146l0.146,0.146l0.15,0.146l0.142,0.15l0.146,0.146l0.283,0.3l0.413,0.45l0.4,0.462l0.129,0.154l0.129,0.159l0.129,0.154l0.25,0.317l0.121,0.158l0.125,0.158l0.117,0.163l0.12,0.162l0.117,0.159l0.117,0.162l0.112,0.167l0.113,0.162l0.112,0.167l0.109,0.162l0.108,0.167l0.104,0.167l0.108,0.166l0.1,0.171l0.105,0.167l0.2,0.342l0.191,0.341l0.096,0.175l0.092,0.171l0.183,0.35l0.175,0.35l0.083,0.175l0.167,0.358l0.079,0.175l0.159,0.359l0.075,0.183l0.15,0.358l0.141,0.367l0.067,0.183l0.071,0.184l0.062,0.183l0.067,0.183l0.062,0.188l0.059,0.187l0.062,0.184l0.059,0.187l0.108,0.375l0.054,0.192l0.054,0.187l0.05,0.188l0.05,0.192l0.138,0.575l0.125,0.575l0.037,0.195l0.038,0.192l0.037,0.196l0.067,0.392l0.087,0.587l0.03,0.2l0.025,0.196l0.02,0.196l0.025,0.2l0.021,0.2l0.017,0.2l0.021,0.2l0.016,0.2l0.013,0.2l0.017,0.2l0.012,0.2l0.008,0.204l0.009,0.2l0.016,0.408l0.009,0.409l0,82.066l-0.004,0.217l-0.009,0.225l-0.004,0.229l-0.012,0.229l-0.013,0.238l-0.012,0.237l-0.017,0.246l-0.017,0.246l-0.025,0.25l-0.021,0.254l-0.029,0.258l-0.029,0.259l-0.033,0.262l-0.034,0.271l-0.041,0.267l-0.042,0.275l-0.046,0.275l-0.05,0.279l-0.054,0.279l-0.025,0.142l-0.029,0.141l-0.033,0.146l-0.03,0.142l-0.033,0.146l-0.033,0.141l-0.034,0.146l-0.033,0.146l-0.037,0.146l-0.038,0.15l-0.037,0.146l-0.038,0.146l-0.042,0.15l-0.041,0.15l-0.042,0.15l-0.046,0.15l-0.046,0.15l-0.045,0.15l-0.046,0.15l-0.05,0.15l-0.05,0.154l-0.05,0.15l-0.054,0.154l-0.055,0.154l-0.054,0.154l-0.058,0.15l-0.054,0.154l-0.059,0.155l-0.062,0.158l-0.063,0.154l-0.062,0.154l-0.063,0.154l-0.066,0.159l-0.067,0.154l-0.071,0.158l-0.071,0.154l-0.07,0.159l-0.071,0.154l-0.075,0.158l-0.075,0.154l-0.079,0.159l-0.08,0.158l-0.079,0.158l-0.083,0.159l-0.083,0.154l-0.084,0.158l-0.087,0.159l-0.088,0.158l-0.091,0.158l-0.092,0.159l-0.092,0.158l-0.096,0.154l-0.095,0.158l-0.1,0.159l-0.1,0.158l-0.1,0.158l-0.105,0.159l-0.104,0.154l-0.104,0.158l-0.108,0.159l-0.113,0.154l-0.112,0.158l-0.113,0.158l-0.116,0.155l-0.117,0.158l-0.117,0.154l-0.121,0.158l-0.125,0.155l-0.12,0.154l-0.13,0.154l-0.129,0.158l-0.129,0.154l-0.129,0.155l-0.133,0.154l-0.138,0.154l-0.137,0.15l-0.142,0.154l-0.138,0.154l-0.145,0.15l-0.146,0.154l-0.146,0.15l-0.15,0.15l-0.15,0.15l-0.154,0.15l-0.154,0.15l-0.159,0.15l-0.158,0.15l-0.163,0.146l-0.162,0.15l-0.167,0.146l-0.166,0.146l-0.171,0.146l-0.171,0.146l-0.171,0.145l-0.179,0.142l-0.175,0.146l-0.179,0.142l-0.184,0.141l-0.183,0.142l-0.187,0.142l-0.188,0.141l-0.192,0.138l-0.191,0.141l-0.196,0.138l-0.196,0.137l-0.2,0.138l-0.204,0.133l-0.204,0.138l-0.205,0.133l-0.208,0.133l-0.212,0.134l-0.213,0.133l-0.212,0.133l-0.217,0.13l-0.221,0.129l-0.221,0.129l-0.225,0.129l-0.229,0.129l-0.229,0.125l-0.229,0.125l-0.234,0.125l-0.237,0.125l-0.238,0.125l-0.241,0.121l-0.242,0.121l-0.246,0.121l-0.25,0.121l-0.25,0.116l-0.25,0.117l-0.258,0.117l-0.254,0.116l-0.263,0.113l-0.262,0.116l-0.263,0.113l-0.271,0.108l-0.27,0.113l-0.271,0.108l-0.275,0.108l-0.279,0.109l-0.28,0.108l-0.283,0.104l-0.283,0.104l-0.288,0.105l-0.291,0.1l-0.296,0.1l-0.296,0.1l-0.296,0.1l-0.304,0.096l-0.3,0.095l-0.308,0.096l-0.309,0.096l-0.312,0.092l-0.313,0.091l-0.321,0.092l-0.316,0.088l-0.325,0.087l-0.325,0.088l-0.329,0.087l-0.33,0.083l-0.333,0.084l-0.337,0.079l-0.342,0.083l-0.342,0.079l-0.341,0.075l-0.35,0.08l-0.35,0.075l-0.355,0.075l-0.358,0.07l-0.358,0.071l-0.363,0.071l-0.362,0.067l-0.371,0.071l-0.371,0.062l-0.375,0.067l-0.375,0.062l-0.379,0.063l-0.383,0.058l-0.388,0.058l-0.387,0.059l-0.392,0.058l-0.396,0.054l-0.4,0.05l-0.4,0.054l-0.404,0.05l-0.408,0.046l-0.413,0.05l-0.412,0.046l-0.417,0.042l-0.421,0.041l-0.421,0.042l-0.429,0.042l-0.429,0.037l-0.433,0.034l-0.434,0.037l-0.441,0.033l-0.442,0.03l-0.446,0.029l-0.446,0.029l-0.454,0.029l-0.454,0.025l-0.458,0.021l-0.463,0.021l-0.467,0.021l-0.47,0.016l-0.471,0.017l-0.475,0.017l-0.479,0.012l-0.484,0.013l-0.483,0.008l-0.492,0.008l-0.491,0.009l-0.496,0.004l-0.5,0l-0.5,0.004l-23.304,0l0,85.604l-37.717,0l0,-226.158l61.396,0Zm-57.229,4.166l0,217.825l29.383,0l0,-85.604l27.467,0l0.491,-0.004l0.484,0l0.479,-0.004l0.479,-0.009l0.475,-0.008l0.467,-0.008l0.466,-0.009l0.467,-0.016l0.458,-0.013l0.454,-0.016l0.455,-0.017l0.45,-0.021l0.445,-0.021l0.442,-0.021l0.438,-0.025l0.437,-0.025l0.429,-0.029l0.429,-0.025l0.425,-0.033l0.425,-0.029l0.417,-0.034l0.417,-0.037l0.412,-0.033l0.409,-0.038l0.404,-0.042l0.4,-0.041l0.4,-0.042l0.396,-0.042l0.391,-0.045l0.388,-0.046l0.387,-0.046l0.379,-0.05l0.38,-0.05l0.379,-0.054l0.371,-0.054l0.37,-0.055l0.367,-0.054l0.363,-0.058l0.358,-0.058l0.358,-0.059l0.354,-0.062l0.35,-0.063l0.346,-0.062l0.346,-0.063l0.342,-0.066l0.337,-0.067l0.338,-0.071l0.333,-0.067l0.329,-0.07l0.325,-0.075l0.321,-0.071l0.321,-0.075l0.321,-0.075l0.312,-0.075l0.313,-0.079l0.308,-0.08l0.304,-0.079l0.304,-0.079l0.3,-0.083l0.296,-0.084l0.296,-0.083l0.292,-0.083l0.287,-0.088l0.284,-0.087l0.283,-0.088l0.279,-0.087l0.279,-0.092l0.275,-0.087l0.271,-0.092l0.271,-0.096l0.267,-0.092l0.262,-0.095l0.258,-0.092l0.259,-0.1l0.258,-0.096l0.25,-0.096l0.25,-0.1l0.25,-0.1l0.246,-0.1l0.242,-0.1l0.237,-0.1l0.238,-0.104l0.237,-0.104l0.229,-0.104l0.229,-0.104l0.23,-0.105l0.225,-0.108l0.22,-0.104l0.221,-0.108l0.217,-0.109l0.212,-0.108l0.213,-0.113l0.212,-0.108l0.205,-0.112l0.208,-0.113l0.2,-0.108l0.2,-0.117l0.2,-0.112l0.196,-0.113l0.191,-0.112l0.192,-0.117l0.188,-0.117l0.187,-0.116l0.183,-0.117l0.184,-0.117l0.179,-0.116l0.179,-0.117l0.175,-0.121l0.171,-0.117l0.171,-0.12l0.171,-0.121l0.166,-0.117l0.163,-0.121l0.162,-0.125l0.163,-0.121l0.158,-0.12l0.158,-0.121l0.155,-0.125l0.15,-0.121l0.15,-0.125l0.15,-0.125l0.145,-0.121l0.146,-0.125l0.142,-0.125l0.137,-0.125l0.142,-0.125l0.138,-0.125l0.133,-0.125l0.133,-0.129l0.129,-0.125l0.13,-0.125l0.129,-0.129l0.125,-0.125l0.125,-0.129l0.121,-0.13l0.121,-0.125l0.116,-0.129l0.117,-0.129l0.117,-0.125l0.112,-0.129l0.113,-0.129l0.112,-0.129l0.108,-0.13l0.105,-0.129l0.104,-0.129l0.104,-0.129l0.104,-0.129l0.1,-0.129l0.1,-0.13l0.096,-0.129l0.096,-0.129l0.091,-0.133l0.096,-0.129l0.088,-0.13l0.091,-0.129l0.088,-0.129l0.087,-0.133l0.084,-0.129l0.087,-0.13l0.079,-0.129l0.084,-0.133l0.079,-0.129l0.079,-0.129l0.075,-0.13l0.075,-0.133l0.075,-0.129l0.071,-0.129l0.075,-0.129l0.067,-0.13l0.07,-0.133l0.067,-0.129l0.067,-0.129l0.066,-0.129l0.063,-0.13l0.062,-0.129l0.063,-0.129l0.058,-0.129l0.059,-0.129l0.058,-0.129l0.058,-0.13l0.054,-0.129l0.055,-0.129l0.054,-0.129l0.05,-0.125l0.054,-0.129l0.05,-0.129l0.046,-0.125l0.05,-0.13l0.046,-0.125l0.045,-0.129l0.046,-0.125l0.042,-0.129l0.042,-0.125l0.041,-0.125l0.042,-0.125l0.037,-0.125l0.038,-0.125l0.037,-0.125l0.038,-0.125l0.037,-0.125l0.034,-0.121l0.033,-0.125l0.033,-0.125l0.034,-0.121l0.029,-0.12l0.029,-0.125l0.029,-0.121l0.029,-0.121l0.03,-0.121l0.025,-0.121l0.025,-0.116l0.025,-0.121l0.025,-0.121l0.025,-0.113l0.041,-0.241l0.042,-0.234l0.042,-0.229l0.033,-0.229l0.033,-0.229l0.029,-0.225l0.03,-0.221l0.025,-0.221l0.025,-0.216l0.016,-0.217l0.021,-0.213l0.017,-0.208l0.012,-0.208l0.013,-0.204l0.008,-0.2l0.008,-0.196l0.009,-0.196l0.004,-0.192l0.004,-0.187l0,-0.184l0,-0.183l0,-81.229l0,-0.179l0,-0.171l-0.004,-0.175l-0.004,-0.175l-0.004,-0.175l-0.009,-0.171l-0.008,-0.171l-0.008,-0.175l-0.009,-0.171l-0.012,-0.17l-0.013,-0.167l-0.016,-0.171l-0.013,-0.171l-0.017,-0.166l-0.016,-0.171l-0.021,-0.167l-0.021,-0.167l-0.021,-0.166l-0.021,-0.163l-0.025,-0.166l-0.025,-0.167l-0.025,-0.163l-0.029,-0.162l-0.029,-0.163l-0.029,-0.162l-0.029,-0.163l-0.034,-0.162l-0.033,-0.163l-0.033,-0.158l-0.038,-0.162l-0.037,-0.159l-0.038,-0.158l-0.041,-0.158l-0.038,-0.159l-0.042,-0.154l-0.045,-0.158l-0.042,-0.159l-0.046,-0.154l-0.046,-0.154l-0.05,-0.154l-0.05,-0.154l-0.05,-0.154l-0.05,-0.155l-0.054,-0.15l-0.054,-0.154l-0.054,-0.15l-0.059,-0.15l-0.058,-0.15l-0.058,-0.15l-0.059,-0.15l-0.062,-0.146l-0.063,-0.15l-0.062,-0.145l-0.067,-0.15l-0.066,-0.146l-0.067,-0.146l-0.071,-0.146l-0.071,-0.146l-0.071,-0.141l-0.07,-0.146l-0.075,-0.142l-0.075,-0.142l-0.075,-0.145l-0.08,-0.142l-0.079,-0.142l-0.079,-0.137l-0.083,-0.142l-0.079,-0.142l-0.088,-0.137l-0.083,-0.138l-0.088,-0.137l-0.087,-0.142l-0.088,-0.133l-0.091,-0.138l-0.092,-0.137l-0.092,-0.133l-0.096,-0.138l-0.095,-0.133l-0.096,-0.134l-0.1,-0.133l-0.1,-0.133l-0.1,-0.134l-0.1,-0.133l-0.104,-0.129l-0.105,-0.133l-0.108,-0.13l-0.108,-0.129l-0.109,-0.129l-0.108,-0.129l-0.112,-0.129l-0.113,-0.129l-0.112,-0.125l-0.117,-0.13l-0.117,-0.125l-0.121,-0.125l-0.116,-0.125l-0.121,-0.125l-0.125,-0.125l-0.121,-0.12l-0.125,-0.125l-0.129,-0.121l-0.125,-0.125l-0.129,-0.121l-0.134,-0.121l-0.129,-0.121l-0.137,-0.116l-0.134,-0.121l-0.137,-0.117l-0.138,-0.121l-0.137,-0.116l-0.142,-0.117l-0.142,-0.117l-0.141,-0.116l-0.146,-0.113l-0.146,-0.117l-0.15,-0.112l-0.146,-0.113l-0.15,-0.112l-0.154,-0.113l-0.154,-0.112l-0.154,-0.113l-0.154,-0.108l-0.159,-0.112l-0.158,-0.109l-0.163,-0.108l-0.162,-0.108l-0.163,-0.109l-0.166,-0.104l-0.167,-0.108l-0.167,-0.104l-0.17,-0.105l-0.171,-0.104l-0.171,-0.104l-0.175,-0.104l-0.175,-0.104l-0.179,-0.1l-0.175,-0.1l-0.184,-0.1l-0.179,-0.1l-0.183,-0.1l-0.183,-0.1l-0.188,-0.096l-0.187,-0.1l-0.188,-0.096l-0.192,-0.096l-0.191,-0.096l-0.192,-0.091l-0.196,-0.096l-0.196,-0.092l-0.2,-0.091l-0.2,-0.092l-0.2,-0.092l-0.2,-0.091l-0.204,-0.088l-0.208,-0.092l-0.208,-0.087l-0.209,-0.088l-0.208,-0.087l-0.213,-0.083l-0.212,-0.088l-0.217,-0.083l-0.212,-0.084l-0.221,-0.083l-0.217,-0.083l-0.221,-0.079l-0.225,-0.084l-0.225,-0.079l-0.225,-0.079l-0.225,-0.079l-0.229,-0.079l-0.229,-0.075l-0.233,-0.075l-0.234,-0.075l-0.233,-0.075l-0.237,-0.075l-0.238,-0.075l-0.237,-0.071l-0.242,-0.071l-0.246,-0.071l-0.242,-0.071l-0.245,-0.071l-0.246,-0.066l-0.25,-0.067l-0.25,-0.067l-0.254,-0.066l-0.25,-0.067l-0.259,-0.062l-0.254,-0.063l-0.258,-0.067l-0.263,-0.058l-0.258,-0.062l-0.263,-0.059l-0.266,-0.062l-0.267,-0.059l-0.267,-0.058l-0.266,-0.054l-0.271,-0.058l-0.275,-0.055l-0.275,-0.054l-0.275,-0.054l-0.275,-0.05l-0.279,-0.054l-0.279,-0.05l-0.284,-0.05l-0.283,-0.05l-0.283,-0.046l-0.288,-0.05l-0.287,-0.046l-0.292,-0.046l-0.288,-0.041l-0.295,-0.046l-0.292,-0.042l-0.296,-0.041l-0.3,-0.042l-0.3,-0.042l-0.3,-0.037l-0.3,-0.038l-0.304,-0.037l-0.308,-0.038l-0.305,-0.033l-0.308,-0.038l-0.312,-0.033l-0.313,-0.033l-0.312,-0.029l-0.313,-0.034l-0.317,-0.029l-0.32,-0.029l-0.321,-0.029l-0.321,-0.025l-0.321,-0.025l-0.325,-0.025l-0.325,-0.025l-0.329,-0.025l-0.329,-0.021l-0.329,-0.021l-0.334,-0.021l-0.337,-0.021l-0.334,-0.016l-0.337,-0.017l-0.338,-0.017l-0.341,-0.016l-0.342,-0.017l-0.346,-0.012l-0.346,-0.013l-0.345,-0.012l-0.35,-0.009l-0.35,-0.012l-0.35,-0.009l-0.355,-0.004l-0.354,-0.008l-0.358,-0.004l-0.358,-0.004l-0.359,-0.005l-0.362,-0.004l-0.363,0l-0.366,0l-56.85,0Zm50.866,13.354l0.625,0.009l0.617,0.016l0.608,0.025l0.3,0.017l0.296,0.017l0.296,0.021l0.292,0.02l0.291,0.025l0.288,0.025l0.287,0.03l0.284,0.029l0.558,0.066l0.279,0.038l0.271,0.037l0.275,0.042l0.533,0.083l0.267,0.046l0.262,0.05l0.517,0.1l0.254,0.054l0.254,0.059l0.5,0.116l0.492,0.125l0.242,0.067l0.237,0.067l0.238,0.071l0.466,0.141l0.23,0.075l0.229,0.079l0.45,0.159l0.221,0.083l0.216,0.083l0.434,0.175l0.208,0.092l0.212,0.092l0.205,0.091l0.408,0.192l0.4,0.2l0.196,0.104l0.191,0.104l0.192,0.109l0.375,0.216l0.183,0.113l0.18,0.117l0.179,0.112l0.179,0.117l0.175,0.121l0.342,0.241l0.166,0.125l0.163,0.129l0.162,0.125l0.159,0.13l0.158,0.133l0.308,0.267l0.15,0.137l0.292,0.275l0.283,0.283l0.138,0.146l0.266,0.292l0.13,0.15l0.125,0.15l0.125,0.154l0.12,0.15l0.121,0.154l0.117,0.159l0.225,0.316l0.108,0.159l0.209,0.325l0.1,0.166l0.191,0.334l0.184,0.333l0.087,0.171l0.083,0.175l0.159,0.341l0.075,0.175l0.075,0.18l0.071,0.175l0.066,0.175l0.067,0.179l0.062,0.179l0.059,0.183l0.058,0.179l0.054,0.184l0.05,0.179l0.05,0.183l0.046,0.188l0.083,0.366l0.038,0.188l0.067,0.375l0.058,0.375l0.025,0.192l0.021,0.187l0.016,0.192l0.017,0.187l0.017,0.192l0.012,0.192l0.009,0.191l0.008,0.384l0.004,0.187l0,76.071l-0.004,0.187l-0.004,0.192l-0.004,0.192l-0.009,0.191l-0.012,0.192l-0.017,0.192l-0.017,0.191l-0.016,0.188l-0.021,0.192l-0.025,0.187l-0.029,0.188l-0.029,0.187l-0.034,0.188l-0.033,0.187l-0.038,0.188l-0.041,0.183l-0.042,0.187l-0.046,0.184l-0.05,0.183l-0.05,0.183l-0.054,0.18l-0.058,0.183l-0.059,0.179l-0.062,0.179l-0.067,0.179l-0.066,0.175l-0.071,0.18l-0.075,0.175l-0.075,0.175l-0.079,0.17l-0.08,0.175l-0.083,0.171l-0.087,0.171l-0.092,0.167l-0.092,0.171l-0.096,0.166l-0.095,0.163l-0.1,0.166l-0.105,0.163l-0.104,0.162l-0.108,0.159l-0.113,0.162l-0.112,0.154l-0.117,0.159l-0.121,0.154l-0.12,0.154l-0.125,0.15l-0.125,0.15l-0.13,0.15l-0.133,0.15l-0.133,0.146l-0.138,0.142l-0.141,0.145l-0.142,0.138l-0.146,0.142l-0.146,0.137l-0.15,0.138l-0.154,0.133l-0.154,0.133l-0.158,0.129l-0.159,0.13l-0.162,0.129l-0.163,0.125l-0.166,0.125l-0.171,0.125l-0.171,0.121l-0.175,0.116l-0.179,0.117l-0.179,0.117l-0.18,0.112l-0.183,0.113l-0.187,0.112l-0.188,0.108l-0.192,0.105l-0.191,0.108l-0.196,0.1l-0.2,0.104l-0.2,0.096l-0.2,0.1l-0.208,0.096l-0.205,0.091l-0.212,0.092l-0.208,0.092l-0.217,0.087l-0.217,0.088l-0.216,0.083l-0.221,0.083l-0.225,0.08l-0.225,0.079l-0.229,0.079l-0.23,0.075l-0.233,0.071l-0.233,0.071l-0.238,0.07l-0.237,0.067l-0.242,0.067l-0.246,0.062l-0.246,0.063l-0.25,0.062l-0.25,0.054l-0.254,0.059l-0.254,0.054l-0.258,0.05l-0.259,0.05l-0.262,0.05l-0.267,0.046l-0.266,0.041l-0.267,0.046l-0.275,0.038l-0.271,0.037l-0.279,0.038l-0.279,0.033l-0.279,0.033l-0.284,0.03l-0.287,0.029l-0.288,0.025l-0.291,0.025l-0.292,0.021l-0.296,0.02l-0.296,0.017l-0.3,0.017l-0.304,0.012l-0.304,0.013l-0.308,0.012l-0.309,0.004l-0.312,0.009l-0.313,0l-0.316,0.004l-21.167,0l0,-105.513l21.483,0Zm-17.316,4.167l0,97.179l16.995,0l0.292,-0.004l0.283,0l0.284,-0.004l0.283,-0.008l0.275,-0.009l0.275,-0.012l0.275,-0.013l0.267,-0.012l0.271,-0.017l0.262,-0.017l0.263,-0.02l0.258,-0.021l0.254,-0.025l0.254,-0.025l0.25,-0.025l0.25,-0.029l0.246,-0.03l0.242,-0.033l0.237,-0.033l0.238,-0.034l0.233,-0.037l0.233,-0.038l0.23,-0.041l0.225,-0.042l0.225,-0.042l0.22,-0.045l0.217,-0.046l0.217,-0.046l0.212,-0.05l0.213,-0.05l0.204,-0.05l0.208,-0.054l0.2,-0.054l0.2,-0.059l0.196,-0.058l0.196,-0.058l0.192,-0.059l0.187,-0.062l0.188,-0.063l0.183,-0.066l0.183,-0.067l0.175,-0.067l0.179,-0.066l0.171,-0.071l0.171,-0.067l0.171,-0.075l0.162,-0.071l0.167,-0.075l0.158,-0.075l0.159,-0.075l0.154,-0.079l0.154,-0.075l0.15,-0.079l0.15,-0.083l0.146,-0.08l0.142,-0.083l0.141,-0.083l0.138,-0.084l0.137,-0.087l0.134,-0.083l0.129,-0.088l0.129,-0.087l0.125,-0.088l0.125,-0.092l0.121,-0.091l0.121,-0.092l0.116,-0.092l0.113,-0.091l0.112,-0.096l0.113,-0.092l0.108,-0.096l0.104,-0.095l0.104,-0.096l0.1,-0.1l0.1,-0.096l0.096,-0.1l0.096,-0.1l0.092,-0.1l0.091,-0.104l0.088,-0.1l0.087,-0.104l0.084,-0.1l0.083,-0.105l0.079,-0.108l0.079,-0.104l0.08,-0.104l0.075,-0.109l0.07,-0.108l0.071,-0.108l0.071,-0.109l0.067,-0.108l0.062,-0.112l0.063,-0.109l0.062,-0.112l0.059,-0.113l0.058,-0.112l0.058,-0.117l0.054,-0.112l0.05,-0.117l0.05,-0.117l0.05,-0.116l0.046,-0.117l0.046,-0.117l0.046,-0.121l0.042,-0.12l0.037,-0.121l0.038,-0.121l0.037,-0.121l0.033,-0.125l0.034,-0.121l0.033,-0.125l0.029,-0.125l0.025,-0.129l0.025,-0.125l0.025,-0.129l0.025,-0.129l0.017,-0.129l0.021,-0.13l0.016,-0.129l0.017,-0.133l0.013,-0.133l0.012,-0.134l0.008,-0.133l0.009,-0.133l0.008,-0.138l0.004,-0.133l0,-0.138l0.004,-0.146l0,-76.045l-0.004,-0.142l0,-0.138l-0.004,-0.137l-0.008,-0.138l-0.009,-0.133l-0.008,-0.133l-0.012,-0.134l-0.013,-0.133l-0.017,-0.133l-0.016,-0.129l-0.021,-0.13l-0.017,-0.129l-0.025,-0.129l-0.025,-0.129l-0.025,-0.125l-0.025,-0.125l-0.029,-0.125l-0.033,-0.125l-0.034,-0.125l-0.033,-0.125l-0.037,-0.121l-0.038,-0.121l-0.037,-0.121l-0.042,-0.12l-0.046,-0.117l-0.046,-0.121l-0.046,-0.117l-0.05,-0.116l-0.05,-0.117l-0.05,-0.112l-0.054,-0.117l-0.058,-0.113l-0.058,-0.112l-0.059,-0.113l-0.062,-0.112l-0.063,-0.113l-0.062,-0.108l-0.067,-0.112l-0.071,-0.109l-0.071,-0.108l-0.07,-0.108l-0.075,-0.105l-0.08,-0.108l-0.075,-0.104l-0.083,-0.104l-0.083,-0.104l-0.084,-0.105l-0.087,-0.1l-0.088,-0.104l-0.091,-0.1l-0.092,-0.1l-0.096,-0.1l-0.096,-0.1l-0.1,-0.1l-0.1,-0.096l-0.104,-0.095l-0.104,-0.096l-0.108,-0.096l-0.113,-0.096l-0.112,-0.092l-0.113,-0.095l-0.116,-0.092l-0.121,-0.092l-0.121,-0.087l-0.125,-0.092l-0.125,-0.087l-0.129,-0.088l-0.129,-0.087l-0.134,-0.088l-0.137,-0.083l-0.138,-0.084l-0.141,-0.083l-0.142,-0.083l-0.146,-0.084l-0.15,-0.079l-0.15,-0.079l-0.154,-0.079l-0.154,-0.075l-0.159,-0.075l-0.158,-0.075l-0.162,-0.075l-0.167,-0.071l-0.171,-0.075l-0.171,-0.071l-0.171,-0.066l-0.179,-0.067l-0.175,-0.067l-0.183,-0.066l-0.183,-0.067l-0.188,-0.063l-0.187,-0.062l-0.192,-0.058l-0.196,-0.059l-0.196,-0.058l-0.2,-0.054l-0.2,-0.059l-0.208,-0.05l-0.204,-0.054l-0.213,-0.05l-0.212,-0.05l-0.217,-0.046l-0.217,-0.045l-0.22,-0.046l-0.225,-0.042l-0.225,-0.042l-0.23,-0.041l-0.233,-0.038l-0.233,-0.037l-0.238,-0.034l-0.237,-0.033l-0.242,-0.033l-0.246,-0.029l-0.25,-0.03l-0.25,-0.025l-0.254,-0.025l-0.254,-0.025l-0.258,-0.02l-0.263,-0.021l-0.262,-0.017l-0.267,-0.017l-0.271,-0.012l-0.275,-0.013l-0.275,-0.012l-0.275,-0.008l-0.283,-0.005l-0.284,-0.004l-0.283,-0.004l-0.292,0l-16.995,0Z" style="fill:#603812;"/></g><g><path d="M562.179,334.074l0,-209.159l90.987,0l0,17.521l-57.445,0l0,72.175l42.804,0l0,17.521l-42.804,0l0,84.421l57.445,0l0,17.521l-90.987,0Z" style="fill:#603812;fill-rule:nonzero;"/><path d="M655.25,144.52l-57.446,0l0,68.008l42.804,0l0,21.687l-42.804,0l0,80.255l57.446,0l0,21.687l-95.154,0l0,-213.325l95.154,0l0,21.688Zm-90.988,-17.521l0,204.992l86.821,0l0,-13.355l-57.446,0l0,-88.587l42.804,0l0,-13.354l-42.804,0l0,-76.342l57.446,0l0,-13.354l-86.821,0Z" style="fill:#603812;"/></g><g><path d="M764.829,334.074l-55.967,-104.529l0,123.246l-33.537,0l0,-227.876l33.537,0l0,84.517l60.046,-103.233l33.354,0l-64.487,113.291l60.412,114.584l-33.358,0Z" style="fill:#603812;fill-rule:nonzero;"/><path d="M805.846,104.115l-65.696,115.417l61.492,116.625l-38.063,0l-52.633,-98.308l0,117.025l-37.705,0l0,-232.042l37.705,0l0,78.875l56.762,-97.592l38.138,0Zm-11.113,227.876l-59.333,-112.538l63.279,-111.171l-28.575,0l-63.325,108.875l0,-90.158l-29.371,0l0,223.708l29.371,0l0,-129.467l59.296,110.751l28.658,0Z" style="fill:#603812;"/></g><g><path d="M886.833,274.707l-11.121,-66.004l-3.704,-29.767l-3.521,30.067l-11.487,65.704l29.833,0Zm45.034,57.342l-33.73,0l-7.783,-39.821l-36.879,0l-11.675,58.538l-33.538,0l41.692,-227.88l44.104,0l37.809,209.163Z" style="fill:#603812;fill-rule:nonzero;"/><path d="M934.358,334.132l-37.937,0l-7.784,-39.821l-33.454,0l-11.675,58.538l-37.746,0l42.455,-232.046l47.583,0l38.558,213.329Zm-82.666,-209.162l-40.93,223.712l29.33,0l11.675,-58.537l40.304,0l7.783,39.821l29.521,0l-37.058,-204.996l-40.625,0Zm26.083,83.433l11.521,68.388l-34.775,0l11.904,-68.088l5.521,-47.142l5.829,46.842Zm-7.225,0.9l-11.071,63.321l24.892,0l-10.721,-63.617l-1.579,-12.696l-1.521,12.992Z" style="fill:#603812;"/></g><path d="M556.725,592.241c-128.142,2.262 -233.371,-34.488 -234.625,-82.567c-1.259,-47.333 103.975,-88.871 232.108,-90.888c129.396,-2.008 235.375,35.751 235.375,82.576c0,47.583 -103.712,88.616 -232.858,90.879" style="fill:#603812;fill-rule:nonzero;"/><path d="M406.895,545.107c-15.212,0 -23.266,-8.262 -23.266,-18.358l0,-42.45c0,-9.983 8.054,-18.358 23.266,-18.358c15.213,0 22.667,7.687 22.667,17.671l0,10.441l-11.033,0l0,-10.671c0,-5.166 -3.879,-8.72 -11.188,-8.72c-7.458,0 -11.337,3.67 -11.337,8.375l0,44.97c0,4.821 3.879,8.38 11.337,8.38c7.309,0 11.188,-3.442 11.188,-8.721l0,-10.784l11.033,0l0,10.555c0,9.979 -7.454,17.67 -22.667,17.67" style="fill:#fff;fill-rule:nonzero;"/><path d="M479.804,483.724c0,-5.162 -3.729,-9.062 -11.038,-9.062c-7.454,0 -11.037,3.9 -11.037,9.062l0,43.596c0,5.279 3.583,9.067 11.037,9.067c7.309,0 11.038,-3.788 11.038,-9.067l0,-43.596Zm-11.038,61.383c-15.212,0 -23.416,-7.916 -23.416,-18.82l0,-41.53c0,-10.783 8.204,-18.816 23.416,-18.816c15.209,0 23.417,8.033 23.417,18.816l0,41.53c0,10.904 -8.208,18.82 -23.417,18.82" style="fill:#fff;fill-rule:nonzero;"/><path d="M526.004,475.924l0,25.008l19.983,0l0,8.38l-19.983,0l0,34.416l-12.529,0l0,-76.408l38.329,0l0,8.604l-25.8,0Z" style="fill:#fff;fill-rule:nonzero;"/><path d="M582.2,475.924l0,25.008l19.983,0l0,8.38l-19.983,0l0,34.416l-12.529,0l0,-76.408l38.329,0l0,8.604l-25.8,0Z" style="fill:#fff;fill-rule:nonzero;"/><path d="M625.862,543.732l0,-76.412l38.925,0l0,8.721l-26.546,0l0,23.75l19.238,0l0,8.371l-19.238,0l0,26.85l26.546,0l0,8.72l-38.925,0Z" style="fill:#fff;fill-rule:nonzero;"/><path d="M687.116,543.732l0,-76.412l38.925,0l0,8.721l-26.545,0l0,23.75l19.237,0l0,8.371l-19.237,0l0,26.85l26.545,0l0,8.72l-38.925,0Z" style="fill:#fff;fill-rule:nonzero;"/></g></svg>